<svg width="145" height="44" viewBox="0 0 145 44" fill="none" xmlns="http://www.w3.org/2000/svg">
<rect width="145" height="44" rx="7.32323" fill="#F5F5F5"/>
<path d="M44.9579 31.1328L48.2859 22.0328H50.2749L53.5899 31.1328H51.7309L49.2739 24.0348L46.8039 31.1328H44.9579ZM46.4269 29.0658L46.8949 27.7008H51.5229L51.9779 29.0658H46.4269ZM54.7467 33.9928V24.5808H56.3067L56.5017 25.4908C56.6403 25.3001 56.805 25.1268 56.9957 24.9708C57.1863 24.8061 57.4117 24.6761 57.6717 24.5808C57.9403 24.4768 58.2523 24.4248 58.6077 24.4248C59.223 24.4248 59.7647 24.5765 60.2327 24.8798C60.7007 25.1831 61.069 25.5948 61.3377 26.1148C61.615 26.6261 61.7537 27.2111 61.7537 27.8698C61.7537 28.5285 61.615 29.1178 61.3377 29.6378C61.0603 30.1491 60.6877 30.5521 60.2197 30.8468C59.7517 31.1415 59.2187 31.2888 58.6207 31.2888C58.1353 31.2888 57.715 31.2021 57.3597 31.0288C57.013 30.8468 56.727 30.5998 56.5017 30.2878V33.9928H54.7467ZM58.2047 29.7548C58.5513 29.7548 58.8547 29.6768 59.1147 29.5208C59.3833 29.3648 59.5913 29.1438 59.7387 28.8578C59.886 28.5718 59.9597 28.2425 59.9597 27.8698C59.9597 27.4971 59.886 27.1678 59.7387 26.8818C59.5913 26.5871 59.3833 26.3618 59.1147 26.2058C58.8547 26.0411 58.5513 25.9588 58.2047 25.9588C57.8667 25.9588 57.5633 26.0411 57.2947 26.2058C57.0347 26.3618 56.8267 26.5828 56.6707 26.8688C56.5233 27.1548 56.4497 27.4841 56.4497 27.8568C56.4497 28.2295 56.5233 28.5631 56.6707 28.8578C56.8267 29.1438 57.0347 29.3648 57.2947 29.5208C57.5633 29.6768 57.8667 29.7548 58.2047 29.7548ZM63.2652 33.9928V24.5808H64.8252L65.0202 25.4908C65.1589 25.3001 65.3236 25.1268 65.5142 24.9708C65.7049 24.8061 65.9302 24.6761 66.1902 24.5808C66.4589 24.4768 66.7709 24.4248 67.1262 24.4248C67.7416 24.4248 68.2832 24.5765 68.7512 24.8798C69.2192 25.1831 69.5876 25.5948 69.8562 26.1148C70.1336 26.6261 70.2722 27.2111 70.2722 27.8698C70.2722 28.5285 70.1336 29.1178 69.8562 29.6378C69.5789 30.1491 69.2062 30.5521 68.7382 30.8468C68.2702 31.1415 67.7372 31.2888 67.1392 31.2888C66.6539 31.2888 66.2336 31.2021 65.8782 31.0288C65.5316 30.8468 65.2456 30.5998 65.0202 30.2878V33.9928H63.2652ZM66.7232 29.7548C67.0699 29.7548 67.3732 29.6768 67.6332 29.5208C67.9019 29.3648 68.1099 29.1438 68.2572 28.8578C68.4046 28.5718 68.4782 28.2425 68.4782 27.8698C68.4782 27.4971 68.4046 27.1678 68.2572 26.8818C68.1099 26.5871 67.9019 26.3618 67.6332 26.2058C67.3732 26.0411 67.0699 25.9588 66.7232 25.9588C66.3852 25.9588 66.0819 26.0411 65.8132 26.2058C65.5532 26.3618 65.3452 26.5828 65.1892 26.8688C65.0419 27.1548 64.9682 27.4841 64.9682 27.8568C64.9682 28.2295 65.0419 28.5631 65.1892 28.8578C65.3452 29.1438 65.5532 29.3648 65.8132 29.5208C66.0819 29.6768 66.3852 29.7548 66.7232 29.7548ZM78.0154 31.2888C77.3567 31.2888 76.7674 31.1761 76.2474 30.9508C75.736 30.7255 75.3287 30.3961 75.0254 29.9628C74.7307 29.5295 74.579 29.0051 74.5704 28.3898H76.4294C76.438 28.6585 76.5074 28.9011 76.6374 29.1178C76.7674 29.3345 76.945 29.5078 77.1704 29.6378C77.4044 29.7591 77.6817 29.8198 78.0024 29.8198C78.2797 29.8198 78.518 29.7765 78.7174 29.6898C78.9254 29.5945 79.0857 29.4645 79.1984 29.2998C79.311 29.1351 79.3674 28.9401 79.3674 28.7148C79.3674 28.4548 79.3024 28.2381 79.1724 28.0648C79.051 27.8915 78.8777 27.7441 78.6524 27.6228C78.4357 27.5015 78.18 27.3931 77.8854 27.2978C77.5994 27.1938 77.296 27.0855 76.9754 26.9728C76.256 26.7388 75.7057 26.4268 75.3244 26.0368C74.9517 25.6468 74.7654 25.1311 74.7654 24.4898C74.7654 23.9438 74.8954 23.4758 75.1554 23.0858C75.424 22.6958 75.7924 22.3968 76.2604 22.1888C76.7284 21.9808 77.2614 21.8768 77.8594 21.8768C78.4747 21.8768 79.012 21.9851 79.4714 22.2018C79.9394 22.4098 80.3077 22.7131 80.5764 23.1118C80.8537 23.5105 80.9967 23.9785 81.0054 24.5158H79.1334C79.1247 24.3165 79.064 24.1301 78.9514 23.9568C78.8474 23.7748 78.7 23.6318 78.5094 23.5278C78.3187 23.4151 78.0934 23.3588 77.8334 23.3588C77.608 23.3501 77.4 23.3848 77.2094 23.4628C77.0274 23.5408 76.88 23.6578 76.7674 23.8138C76.6634 23.9611 76.6114 24.1475 76.6114 24.3728C76.6114 24.5895 76.6634 24.7715 76.7674 24.9188C76.88 25.0661 77.0317 25.1961 77.2224 25.3088C77.413 25.4128 77.6384 25.5125 77.8984 25.6078C78.1584 25.6945 78.44 25.7855 78.7434 25.8808C79.194 26.0368 79.61 26.2231 79.9914 26.4398C80.3727 26.6478 80.676 26.9208 80.9014 27.2588C81.1267 27.5968 81.2394 28.0431 81.2394 28.5978C81.2394 29.0745 81.1137 29.5165 80.8624 29.9238C80.611 30.3311 80.247 30.6605 79.7704 30.9118C79.3024 31.1631 78.7174 31.2888 78.0154 31.2888ZM85.6401 31.1328C85.1807 31.1328 84.7777 31.0635 84.4311 30.9248C84.0931 30.7775 83.8287 30.5391 83.6381 30.2098C83.4474 29.8718 83.3521 29.4125 83.3521 28.8318V26.0498H82.2341V24.5808H83.3521L83.5471 22.7998H85.1071V24.5808H86.8361V26.0498H85.1071V28.8578C85.1071 29.1525 85.1721 29.3561 85.3021 29.4688C85.4321 29.5815 85.6531 29.6378 85.9651 29.6378H86.8231V31.1328H85.6401ZM91.242 31.2888C90.618 31.2888 90.0547 31.1458 89.552 30.8598C89.058 30.5651 88.6637 30.1621 88.369 29.6508C88.083 29.1308 87.94 28.5371 87.94 27.8698C87.94 27.1851 88.083 26.5871 88.369 26.0758C88.6637 25.5558 89.0624 25.1528 89.565 24.8668C90.0677 24.5721 90.631 24.4248 91.255 24.4248C91.8877 24.4248 92.451 24.5721 92.945 24.8668C93.4477 25.1528 93.842 25.5558 94.128 26.0758C94.4227 26.5871 94.57 27.1808 94.57 27.8568C94.57 28.5328 94.4227 29.1308 94.128 29.6508C93.842 30.1621 93.4477 30.5651 92.945 30.8598C92.4424 31.1458 91.8747 31.2888 91.242 31.2888ZM91.242 29.7678C91.5367 29.7678 91.7967 29.6985 92.022 29.5598C92.256 29.4211 92.438 29.2088 92.568 28.9228C92.7067 28.6368 92.776 28.2815 92.776 27.8568C92.776 27.4321 92.7067 27.0811 92.568 26.8038C92.438 26.5178 92.256 26.3055 92.022 26.1668C91.7967 26.0195 91.541 25.9458 91.255 25.9458C90.9777 25.9458 90.722 26.0195 90.488 26.1668C90.254 26.3055 90.0677 26.5178 89.929 26.8038C89.799 27.0811 89.734 27.4321 89.734 27.8568C89.734 28.2815 89.799 28.6368 89.929 28.9228C90.0677 29.2088 90.2497 29.4211 90.475 29.5598C90.709 29.6985 90.9647 29.7678 91.242 29.7678ZM96.0826 31.1328V24.5808H97.6426L97.8116 25.7898C97.9676 25.5038 98.1626 25.2611 98.3966 25.0618C98.6393 24.8625 98.9123 24.7065 99.2156 24.5938C99.5276 24.4811 99.8699 24.4248 100.243 24.4248V26.2838H99.6446C99.3846 26.2838 99.1419 26.3141 98.9166 26.3748C98.6999 26.4355 98.5093 26.5351 98.3446 26.6738C98.1799 26.8038 98.0543 26.9858 97.9676 27.2198C97.8809 27.4538 97.8376 27.7485 97.8376 28.1038V31.1328H96.0826ZM104.446 31.2888C103.788 31.2888 103.203 31.1501 102.691 30.8728C102.189 30.5868 101.794 30.1925 101.508 29.6898C101.231 29.1785 101.092 28.5891 101.092 27.9218C101.092 27.2371 101.231 26.6348 101.508 26.1148C101.786 25.5861 102.176 25.1745 102.678 24.8798C103.19 24.5765 103.779 24.4248 104.446 24.4248C105.096 24.4248 105.664 24.5678 106.149 24.8538C106.635 25.1398 107.012 25.5255 107.28 26.0108C107.549 26.4961 107.683 27.0465 107.683 27.6618C107.683 27.7485 107.683 27.8481 107.683 27.9608C107.683 28.0648 107.675 28.1731 107.657 28.2858H102.34V27.2198H105.915C105.889 26.7951 105.738 26.4615 105.46 26.2188C105.192 25.9761 104.854 25.8548 104.446 25.8548C104.152 25.8548 103.879 25.9241 103.627 26.0628C103.376 26.1928 103.177 26.3965 103.029 26.6738C102.891 26.9511 102.821 27.3021 102.821 27.7268V28.1038C102.821 28.4591 102.886 28.7711 103.016 29.0398C103.155 29.2998 103.346 29.5035 103.588 29.6508C103.831 29.7895 104.113 29.8588 104.433 29.8588C104.754 29.8588 105.018 29.7895 105.226 29.6508C105.443 29.5121 105.603 29.3345 105.707 29.1178H107.501C107.38 29.5251 107.176 29.8935 106.89 30.2228C106.604 30.5521 106.253 30.8121 105.837 31.0028C105.421 31.1935 104.958 31.2888 104.446 31.2888Z" fill="#303792"/>
<path d="M45.584 16V10.4H47.304C47.9547 10.4 48.4933 10.5147 48.92 10.744C49.3467 10.9733 49.6613 11.2987 49.864 11.72C50.072 12.136 50.176 12.632 50.176 13.208C50.176 13.784 50.072 14.28 49.864 14.696C49.6613 15.112 49.3467 15.4347 48.92 15.664C48.4987 15.888 47.96 16 47.304 16H45.584ZM46.384 15.328H47.272C47.7893 15.328 48.2 15.2427 48.504 15.072C48.808 14.9013 49.024 14.6587 49.152 14.344C49.2853 14.024 49.352 13.6453 49.352 13.208C49.352 12.7653 49.2853 12.384 49.152 12.064C49.024 11.744 48.808 11.4987 48.504 11.328C48.2 11.1573 47.7893 11.072 47.272 11.072H46.384V15.328ZM52.9387 16.096C52.56 16.096 52.2187 16.008 51.9147 15.832C51.616 15.656 51.3787 15.4107 51.2027 15.096C51.032 14.776 50.9467 14.408 50.9467 13.992C50.9467 13.5653 51.0347 13.1947 51.2107 12.88C51.3867 12.56 51.6267 12.312 51.9307 12.136C52.2347 11.96 52.576 11.872 52.9547 11.872C53.3387 11.872 53.68 11.96 53.9787 12.136C54.2774 12.312 54.512 12.5573 54.6827 12.872C54.8587 13.1867 54.9467 13.5573 54.9467 13.984C54.9467 14.4107 54.8587 14.7813 54.6827 15.096C54.512 15.4107 54.2747 15.656 53.9707 15.832C53.6667 16.008 53.3227 16.096 52.9387 16.096ZM52.9387 15.408C53.1574 15.408 53.3547 15.3547 53.5307 15.248C53.712 15.1413 53.856 14.984 53.9627 14.776C54.0747 14.5627 54.1307 14.2987 54.1307 13.984C54.1307 13.6693 54.0774 13.408 53.9707 13.2C53.864 12.9867 53.72 12.8267 53.5387 12.72C53.3627 12.6133 53.168 12.56 52.9547 12.56C52.7414 12.56 52.544 12.6133 52.3627 12.72C52.1814 12.8267 52.0347 12.9867 51.9227 13.2C51.816 13.408 51.7627 13.6693 51.7627 13.984C51.7627 14.2987 51.816 14.5627 51.9227 14.776C52.0347 14.984 52.1787 15.1413 52.3547 15.248C52.536 15.3547 52.7307 15.408 52.9387 15.408ZM56.5631 16L55.3791 11.968H56.1711L57.0511 15.328L56.8991 15.32L57.8751 11.968H58.7711L59.7471 15.32L59.5951 15.328L60.4671 11.968H61.2751L60.0911 16H59.2671L58.2431 12.504H58.4031L57.3791 16H56.5631ZM61.9971 16V11.968H62.7171L62.7651 12.656C62.8931 12.416 63.0745 12.2267 63.3091 12.088C63.5438 11.944 63.8131 11.872 64.1171 11.872C64.4371 11.872 64.7118 11.936 64.9411 12.064C65.1705 12.192 65.3491 12.3867 65.4771 12.648C65.6051 12.904 65.6691 13.2267 65.6691 13.616V16H64.8691V13.696C64.8691 13.3227 64.7865 13.04 64.6211 12.848C64.4558 12.656 64.2158 12.56 63.9011 12.56C63.6931 12.56 63.5065 12.6107 63.3411 12.712C63.1758 12.808 63.0425 12.952 62.9411 13.144C62.8451 13.336 62.7971 13.5707 62.7971 13.848V16H61.9971ZM66.6924 16V10.24H67.4924V16H66.6924ZM70.4309 16.096C70.0522 16.096 69.7109 16.008 69.4069 15.832C69.1082 15.656 68.8709 15.4107 68.6949 15.096C68.5242 14.776 68.4389 14.408 68.4389 13.992C68.4389 13.5653 68.5269 13.1947 68.7029 12.88C68.8789 12.56 69.1189 12.312 69.4229 12.136C69.7269 11.96 70.0682 11.872 70.4469 11.872C70.8309 11.872 71.1722 11.96 71.4709 12.136C71.7695 12.312 72.0042 12.5573 72.1749 12.872C72.3509 13.1867 72.4389 13.5573 72.4389 13.984C72.4389 14.4107 72.3509 14.7813 72.1749 15.096C72.0042 15.4107 71.7669 15.656 71.4629 15.832C71.1589 16.008 70.8149 16.096 70.4309 16.096ZM70.4309 15.408C70.6495 15.408 70.8469 15.3547 71.0229 15.248C71.2042 15.1413 71.3482 14.984 71.4549 14.776C71.5669 14.5627 71.6229 14.2987 71.6229 13.984C71.6229 13.6693 71.5695 13.408 71.4629 13.2C71.3562 12.9867 71.2122 12.8267 71.0309 12.72C70.8549 12.6133 70.6602 12.56 70.4469 12.56C70.2335 12.56 70.0362 12.6133 69.8549 12.72C69.6735 12.8267 69.5269 12.9867 69.4149 13.2C69.3082 13.408 69.2549 13.6693 69.2549 13.984C69.2549 14.2987 69.3082 14.5627 69.4149 14.776C69.5269 14.984 69.6709 15.1413 69.8469 15.248C70.0282 15.3547 70.2229 15.408 70.4309 15.408ZM74.7159 16.096C74.3853 16.096 74.1106 16.04 73.8919 15.928C73.6733 15.816 73.5106 15.6667 73.4039 15.48C73.2973 15.288 73.2439 15.0827 73.2439 14.864C73.2439 14.5973 73.3133 14.3707 73.4519 14.184C73.5906 13.992 73.7879 13.8453 74.0439 13.744C74.2999 13.6427 74.6066 13.592 74.9639 13.592H76.0119C76.0119 13.3573 75.9773 13.1627 75.9079 13.008C75.8386 12.8533 75.7346 12.7387 75.5959 12.664C75.4626 12.584 75.2919 12.544 75.0839 12.544C74.8439 12.544 74.6386 12.6027 74.4679 12.72C74.2973 12.832 74.1906 13 74.1479 13.224H73.3479C73.3799 12.9413 73.4759 12.7013 73.6359 12.504C73.8013 12.3013 74.0119 12.1467 74.2679 12.04C74.5239 11.928 74.7959 11.872 75.0839 11.872C75.4626 11.872 75.7799 11.9387 76.0359 12.072C76.2919 12.2053 76.4839 12.3947 76.6119 12.64C76.7453 12.88 76.8119 13.168 76.8119 13.504V16H76.1159L76.0519 15.32C75.9933 15.4267 75.9239 15.528 75.8439 15.624C75.7639 15.72 75.6679 15.8027 75.5559 15.872C75.4493 15.9413 75.3239 15.9947 75.1799 16.032C75.0413 16.0747 74.8866 16.096 74.7159 16.096ZM74.8679 15.448C75.0386 15.448 75.1933 15.4133 75.3319 15.344C75.4706 15.2747 75.5879 15.1813 75.6839 15.064C75.7853 14.9413 75.8599 14.8053 75.9079 14.656C75.9613 14.5013 75.9906 14.344 75.9959 14.184V14.16H75.0439C74.8146 14.16 74.6279 14.1893 74.4839 14.248C74.3453 14.3013 74.2439 14.376 74.1799 14.472C74.1159 14.568 74.0839 14.68 74.0839 14.808C74.0839 14.9413 74.1133 15.056 74.1719 15.152C74.2359 15.2427 74.3266 15.3147 74.4439 15.368C74.5613 15.4213 74.7026 15.448 74.8679 15.448ZM79.6251 16.096C79.2411 16.096 78.9024 16.0053 78.6091 15.824C78.3157 15.6373 78.0864 15.3867 77.9211 15.072C77.7611 14.752 77.6811 14.3893 77.6811 13.984C77.6811 13.5733 77.7611 13.2107 77.9211 12.896C78.0864 12.5813 78.3157 12.3333 78.6091 12.152C78.9077 11.9653 79.2491 11.872 79.6331 11.872C79.9477 11.872 80.2251 11.936 80.4651 12.064C80.7051 12.1867 80.8917 12.3627 81.0251 12.592V10.24H81.8251V16H81.1131L81.0251 15.376C80.9451 15.4987 80.8411 15.616 80.7131 15.728C80.5851 15.8347 80.4304 15.9227 80.2491 15.992C80.0677 16.0613 79.8597 16.096 79.6251 16.096ZM79.7531 15.4C80.0037 15.4 80.2251 15.3413 80.4171 15.224C80.6091 15.1067 80.7557 14.9413 80.8571 14.728C80.9637 14.5147 81.0171 14.2667 81.0171 13.984C81.0171 13.7013 80.9637 13.456 80.8571 13.248C80.7557 13.0347 80.6091 12.8693 80.4171 12.752C80.2251 12.6293 80.0037 12.568 79.7531 12.568C79.5131 12.568 79.2971 12.6293 79.1051 12.752C78.9131 12.8693 78.7637 13.0347 78.6571 13.248C78.5504 13.456 78.4971 13.7013 78.4971 13.984C78.4971 14.2667 78.5504 14.5147 78.6571 14.728C78.7637 14.9413 78.9131 15.1067 79.1051 15.224C79.2971 15.3413 79.5131 15.4 79.7531 15.4ZM86.8059 16.096C86.4272 16.096 86.0859 16.008 85.7819 15.832C85.4832 15.656 85.2459 15.4107 85.0699 15.096C84.8992 14.776 84.8139 14.408 84.8139 13.992C84.8139 13.5653 84.9019 13.1947 85.0779 12.88C85.2539 12.56 85.4939 12.312 85.7979 12.136C86.1019 11.96 86.4432 11.872 86.8219 11.872C87.2059 11.872 87.5472 11.96 87.8459 12.136C88.1445 12.312 88.3792 12.5573 88.5499 12.872C88.7259 13.1867 88.8139 13.5573 88.8139 13.984C88.8139 14.4107 88.7259 14.7813 88.5499 15.096C88.3792 15.4107 88.1419 15.656 87.8379 15.832C87.5339 16.008 87.1899 16.096 86.8059 16.096ZM86.8059 15.408C87.0245 15.408 87.2219 15.3547 87.3979 15.248C87.5792 15.1413 87.7232 14.984 87.8299 14.776C87.9419 14.5627 87.9979 14.2987 87.9979 13.984C87.9979 13.6693 87.9445 13.408 87.8379 13.2C87.7312 12.9867 87.5872 12.8267 87.4059 12.72C87.2299 12.6133 87.0352 12.56 86.8219 12.56C86.6085 12.56 86.4112 12.6133 86.2299 12.72C86.0485 12.8267 85.9019 12.9867 85.7899 13.2C85.6832 13.408 85.6299 13.6693 85.6299 13.984C85.6299 14.2987 85.6832 14.5627 85.7899 14.776C85.9019 14.984 86.0459 15.1413 86.2219 15.248C86.4032 15.3547 86.5979 15.408 86.8059 15.408ZM89.7549 16V11.968H90.4749L90.5229 12.656C90.6509 12.416 90.8323 12.2267 91.0669 12.088C91.3016 11.944 91.5709 11.872 91.8749 11.872C92.1949 11.872 92.4696 11.936 92.6989 12.064C92.9283 12.192 93.1069 12.3867 93.2349 12.648C93.3629 12.904 93.4269 13.2267 93.4269 13.616V16H92.6269V13.696C92.6269 13.3227 92.5443 13.04 92.3789 12.848C92.2136 12.656 91.9736 12.56 91.6589 12.56C91.4509 12.56 91.2643 12.6107 91.0989 12.712C90.9336 12.808 90.8003 12.952 90.6989 13.144C90.6029 13.336 90.5549 13.5707 90.5549 13.848V16H89.7549ZM98.1531 16C97.9025 16 97.6838 15.96 97.4971 15.88C97.3105 15.8 97.1665 15.6667 97.0651 15.48C96.9638 15.2933 96.9131 15.04 96.9131 14.72V12.648H96.2171V11.968H96.9131L97.0091 10.96H97.7131V11.968H98.8571V12.648H97.7131V14.728C97.7131 14.9573 97.7611 15.1147 97.8571 15.2C97.9531 15.28 98.1185 15.32 98.3531 15.32H98.8171V16H98.1531ZM99.7393 16V10.24H100.539V12.624C100.673 12.3893 100.857 12.2053 101.091 12.072C101.331 11.9387 101.595 11.872 101.883 11.872C102.203 11.872 102.478 11.9387 102.707 12.072C102.937 12.2 103.113 12.3947 103.235 12.656C103.358 12.912 103.419 13.2347 103.419 13.624V16H102.627V13.712C102.627 13.3333 102.547 13.048 102.387 12.856C102.227 12.6587 101.99 12.56 101.675 12.56C101.462 12.56 101.27 12.6107 101.099 12.712C100.929 12.8133 100.793 12.9627 100.691 13.16C100.59 13.352 100.539 13.5867 100.539 13.864V16H99.7393ZM106.266 16.096C105.882 16.096 105.541 16.008 105.242 15.832C104.944 15.656 104.709 15.4107 104.538 15.096C104.373 14.7813 104.29 14.416 104.29 14C104.29 13.5733 104.373 13.2027 104.538 12.888C104.709 12.568 104.944 12.32 105.242 12.144C105.541 11.9627 105.888 11.872 106.282 11.872C106.677 11.872 107.016 11.96 107.298 12.136C107.581 12.312 107.8 12.5467 107.954 12.84C108.109 13.128 108.186 13.448 108.186 13.8C108.186 13.8533 108.184 13.912 108.178 13.976C108.178 14.0347 108.176 14.1013 108.17 14.176H104.874V13.608H107.386C107.37 13.272 107.258 13.0107 107.05 12.824C106.842 12.632 106.584 12.536 106.274 12.536C106.056 12.536 105.856 12.5867 105.674 12.688C105.493 12.784 105.346 12.928 105.234 13.12C105.128 13.3067 105.074 13.544 105.074 13.832V14.056C105.074 14.3547 105.128 14.608 105.234 14.816C105.346 15.0187 105.493 15.1733 105.674 15.28C105.856 15.3813 106.053 15.432 106.266 15.432C106.522 15.432 106.733 15.376 106.898 15.264C107.064 15.152 107.186 15 107.266 14.808H108.066C107.997 15.0533 107.88 15.2747 107.714 15.472C107.549 15.664 107.344 15.816 107.098 15.928C106.858 16.04 106.581 16.096 106.266 16.096Z" fill="#212121"/>
<path d="M31.8558 27.6029C31.5403 28.4129 31.1668 29.1586 30.734 29.8442C30.1441 30.7788 29.6611 31.4257 29.2889 31.785C28.7119 32.3746 28.0936 32.6766 27.4316 32.6938C26.9564 32.6938 26.3832 32.5435 25.716 32.2387C25.0467 31.9352 24.4315 31.785 23.8691 31.785C23.2792 31.785 22.6465 31.9352 21.9698 32.2387C21.2921 32.5435 20.7461 32.7024 20.3287 32.7181C19.6938 32.7482 19.0611 32.4376 18.4294 31.785C18.0263 31.3942 17.522 30.7244 16.918 29.7755C16.2699 28.7622 15.737 27.5871 15.3196 26.2475C14.8725 24.8005 14.6484 23.3993 14.6484 22.0427C14.6484 20.4888 14.9506 19.1486 15.5558 18.0255C16.0315 17.1234 16.6643 16.4118 17.4562 15.8894C18.2482 15.367 19.1039 15.1008 20.0255 15.0837C20.5297 15.0837 21.191 15.2571 22.0127 15.5977C22.8321 15.9395 23.3583 16.1128 23.5889 16.1128C23.7614 16.1128 24.3459 15.9101 25.3367 15.5061C26.2737 15.1314 27.0646 14.9762 27.7124 15.0374C29.4679 15.1948 30.7868 15.9638 31.6639 17.3493C30.0939 18.4064 29.3172 19.887 29.3327 21.7864C29.3469 23.2659 29.8298 24.497 30.7791 25.4746C31.2093 25.9283 31.6897 26.279 32.2242 26.528C32.1083 26.9015 31.9859 27.2594 31.8558 27.6029ZM27.8296 9.99707C27.8296 11.1567 27.4484 12.2394 26.6885 13.2416C25.7714 14.4329 24.6622 15.1214 23.4594 15.0127C23.444 14.8736 23.4352 14.7272 23.4352 14.5733C23.4352 13.4601 23.8713 12.2688 24.6457 11.2946C25.0324 10.8014 25.5241 10.3913 26.1205 10.0642C26.7155 9.74194 27.2784 9.56372 27.8077 9.5332C27.8232 9.68823 27.8296 9.84326 27.8296 9.99706V9.99707Z" fill="#303792"/>
</svg>
