<svg width="28" height="31" viewBox="0 0 28 31" fill="none" xmlns="http://www.w3.org/2000/svg">
<path fill-rule="evenodd" clip-rule="evenodd" d="M2.64317 0.333008H25.2856C25.8099 0.333657 26.3126 0.542225 26.6833 0.912967C27.0541 1.28371 27.2626 1.78636 27.2633 2.31067V21.3708C27.2613 21.8944 27.0523 22.3961 26.6818 22.7662C26.3112 23.1362 25.8093 23.3447 25.2856 23.346H16.0206V23.3067C16.0206 22.9755 16.0206 22.6516 16.0059 22.1093H25.5408C25.6126 22.1093 25.6836 22.0952 25.7498 22.0676C25.8161 22.0401 25.8762 21.9998 25.9269 21.9489C25.9775 21.8981 26.0175 21.8377 26.0448 21.7714C26.072 21.705 26.0858 21.6339 26.0855 21.5622V5.10785H1.92425V21.5622C1.92376 21.6085 1.92954 21.6547 1.94142 21.6996C1.9117 21.8275 1.89607 21.9583 1.8948 22.0897C1.88809 22.4422 1.96018 22.7918 2.10582 23.1129C2.13084 23.1723 2.16037 23.2297 2.19415 23.2846C1.76246 23.1821 1.37757 22.9379 1.10093 22.591C0.824295 22.244 0.671862 21.8145 0.667969 21.3708V2.31067C0.668616 1.78678 0.876847 1.2845 1.24706 0.913832C1.61727 0.54316 2.11929 0.334306 2.64317 0.333008ZM7.26343 17.2805C7.37594 17.2728 7.48883 17.2882 7.59513 17.3259C7.70143 17.3635 7.79887 17.4226 7.88144 17.4994C7.964 17.5762 8.02993 17.6691 8.07514 17.7725C8.12035 17.8758 8.14389 17.9873 8.1443 18.1V23.3558H8.67674V20.777C8.67674 19.7342 10.3207 19.7661 10.3207 20.8359V23.4122H10.3452H10.9219V21.356C10.9219 20.3132 12.5658 20.3451 12.5658 21.4125V23.3165H13.1449V21.8664C13.1449 20.8236 14.7888 20.8555 14.7888 21.9228C14.7888 23.1251 14.8575 24.5434 14.8134 25.7432C14.7668 27.0608 14.4944 28.5453 13.5399 29.3746C13.0426 29.8114 12.4543 30.132 11.8177 30.3132C11.1811 30.4944 10.5122 30.5317 9.85941 30.4224C7.59713 30.0641 7.02543 28.6778 5.94827 26.97L3.21242 22.6369C3.04312 22.2418 3.0652 21.9744 3.23451 21.8026C3.97061 21.3315 5.14346 22.3326 6.45372 23.7484H6.50034V18.0436C6.50099 17.8414 6.58159 17.6477 6.72456 17.5047C6.86753 17.3618 7.06125 17.2811 7.26343 17.2805ZM4.90791 10.2213C4.79442 10.0307 4.7584 9.80379 4.80727 9.5874C4.85614 9.37102 4.98617 9.18163 5.17055 9.05828C5.35494 8.93494 5.57962 8.88704 5.79828 8.92447C6.01694 8.9619 6.2129 9.08181 6.34576 9.25946L6.81441 9.77473L8.19092 8.05716C8.33669 7.88015 8.5468 7.7683 8.77504 7.74622C9.00327 7.72413 9.23093 7.79361 9.40794 7.93938C9.58494 8.08515 9.69679 8.29526 9.71888 8.5235C9.74097 8.75174 9.67148 8.9794 9.52571 9.1564L7.445 11.6567C7.38684 11.7324 7.31731 11.7986 7.23889 11.853C7.1439 11.916 7.0374 11.9597 6.9255 11.9815C6.8136 12.0032 6.6985 12.0027 6.5868 11.9799C6.4751 11.9571 6.369 11.9125 6.27459 11.8486C6.18017 11.7847 6.09929 11.7028 6.0366 11.6076L4.90791 10.2139V10.2213ZM22.2922 17.1578C22.5245 17.1457 22.7432 17.0449 22.9034 16.8762C23.0635 16.7075 23.1528 16.4838 23.1528 16.2512C23.1528 16.0186 23.0635 15.7948 22.9034 15.6261C22.7432 15.4574 22.5245 15.3566 22.2922 15.3446H12.8161C12.6931 15.3382 12.57 15.3569 12.4544 15.3995C12.3389 15.4422 12.2332 15.5079 12.1439 15.5928C12.0545 15.6776 11.9834 15.7797 11.9347 15.8929C11.8861 16.0061 11.861 16.128 11.861 16.2512C11.861 16.3744 11.8861 16.4963 11.9347 16.6095C11.9834 16.7227 12.0545 16.8248 12.1439 16.9096C12.2332 16.9944 12.3389 17.0602 12.4544 17.1028C12.57 17.1455 12.6931 17.1642 12.8161 17.1578H22.2922ZM22.2922 10.7783C22.5245 10.7662 22.7432 10.6654 22.9034 10.4967C23.0635 10.328 23.1528 10.1043 23.1528 9.87165C23.1528 9.63904 23.0635 9.4153 22.9034 9.2466C22.7432 9.0779 22.5245 8.97711 22.2922 8.96502H12.8161C12.6931 8.95861 12.57 8.97732 12.4544 9.01999C12.3389 9.06266 12.2332 9.12841 12.1439 9.21322C12.0545 9.29804 11.9834 9.40016 11.9347 9.51335C11.8861 9.62655 11.861 9.74845 11.861 9.87165C11.861 9.99484 11.8861 10.1167 11.9347 10.2299C11.9834 10.3431 12.0545 10.4453 12.1439 10.5301C12.2332 10.6149 12.3389 10.6806 12.4544 10.7233C12.57 10.766 12.6931 10.7847 12.8161 10.7783H22.2922ZM4.99624 13.7374H9.50118C9.66452 13.7374 9.82117 13.8023 9.93666 13.9178C10.0522 14.0333 10.117 14.1899 10.117 14.3533V18.1491C10.1164 18.3122 10.0513 18.4685 9.93595 18.5839C9.82059 18.6992 9.66432 18.7643 9.50118 18.765H9.37113V18.1C9.37586 17.6153 9.20106 17.146 8.8804 16.7824V14.9691H5.61211V16.9566C5.39781 17.2786 5.28343 17.6568 5.28332 18.0436V18.765H4.99624C4.8331 18.7643 4.67683 18.6992 4.56147 18.5839C4.44611 18.4685 4.38102 18.3122 4.38037 18.1491V14.3533C4.38037 14.1899 4.44526 14.0333 4.56075 13.9178C4.67625 13.8023 4.8329 13.7374 4.99624 13.7374ZM23.4037 2.05058C23.5978 2.05058 23.7875 2.10814 23.9489 2.21598C24.1103 2.32383 24.2361 2.47711 24.3104 2.65645C24.3847 2.83579 24.4041 3.03313 24.3663 3.22352C24.3284 3.4139 24.2349 3.58879 24.0977 3.72605C23.9604 3.86331 23.7855 3.95678 23.5951 3.99465C23.4048 4.03252 23.2074 4.01309 23.0281 3.9388C22.8487 3.86452 22.6955 3.73872 22.5876 3.57732C22.4798 3.41592 22.4222 3.22616 22.4222 3.03204C22.4222 2.77174 22.5256 2.5221 22.7097 2.33804C22.8937 2.15398 23.1434 2.05058 23.4037 2.05058ZM16.791 2.05058C16.9851 2.05058 17.1749 2.10814 17.3363 2.21598C17.4977 2.32383 17.6235 2.47711 17.6978 2.65645C17.7721 2.83579 17.7915 3.03313 17.7536 3.22352C17.7158 3.4139 17.6223 3.58879 17.485 3.72605C17.3478 3.86331 17.1729 3.95678 16.9825 3.99465C16.7921 4.03252 16.5948 4.01309 16.4154 3.9388C16.2361 3.86452 16.0828 3.73872 15.975 3.57732C15.8671 3.41592 15.8096 3.22616 15.8096 3.03204C15.8096 2.77174 15.913 2.5221 16.097 2.33804C16.2811 2.15398 16.5307 2.05058 16.791 2.05058ZM20.0986 2.05058C20.2927 2.05058 20.4824 2.10814 20.6438 2.21598C20.8053 2.32383 20.931 2.47711 21.0053 2.65645C21.0796 2.83579 21.0991 3.03313 21.0612 3.22352C21.0233 3.4139 20.9298 3.58879 20.7926 3.72605C20.6553 3.86331 20.4804 3.95678 20.29 3.99465C20.0997 4.03252 19.9023 4.01309 19.723 3.9388C19.5436 3.86452 19.3904 3.73872 19.2825 3.57732C19.1747 3.41592 19.1171 3.22616 19.1171 3.03204C19.1171 2.77174 19.2205 2.5221 19.4046 2.33804C19.5886 2.15398 19.8383 2.05058 20.0986 2.05058Z" fill="#303792"/>
</svg>
