<svg width="33" height="27" viewBox="0 0 33 27" fill="none" xmlns="http://www.w3.org/2000/svg">
<path d="M24.2024 17.7179C24.0984 17.646 23.9811 17.6139 23.8611 17.6379C23.7411 17.6619 23.6397 17.726 23.5677 17.8273L23.1624 18.398C23.0184 18.334 22.8691 18.2859 22.7091 18.246C22.5491 18.2059 22.3997 18.174 22.2397 18.15L22.1117 17.4033C22.0877 17.2753 22.0237 17.1819 21.9304 17.1099C21.8264 17.038 21.7171 17.014 21.5891 17.038L20.6531 17.2059C20.5331 17.2299 20.4397 17.2859 20.3597 17.3899C20.2877 17.4939 20.2557 17.6033 20.2797 17.7313L20.3997 18.4139C20.2477 18.4779 20.1064 18.5499 19.9704 18.6353C19.8344 18.7153 19.7011 18.8113 19.5811 18.9046L18.9464 18.4673C18.8424 18.3953 18.7331 18.3633 18.6131 18.3873C18.4931 18.4113 18.3917 18.4753 18.3197 18.5793L17.7784 19.35C17.7064 19.454 17.6744 19.5713 17.6984 19.6913C17.7224 19.8193 17.7864 19.9126 17.8904 19.9846L18.4611 20.3899C18.3971 20.5339 18.3491 20.6833 18.3091 20.8433C18.2691 21.0033 18.2371 21.1526 18.2131 21.3126L17.4664 21.4406C17.3384 21.4646 17.2451 21.5286 17.1731 21.6219C17.1011 21.7259 17.0771 21.8353 17.1011 21.9633L17.2691 22.8993C17.2931 23.0193 17.3491 23.1126 17.4504 23.1926C17.5544 23.2646 17.6637 23.2966 17.7917 23.2726L18.4744 23.1526C18.5384 23.3046 18.6104 23.4459 18.6957 23.5819C18.7757 23.7179 18.8717 23.8513 18.9651 23.9793L18.5277 24.6059C18.4557 24.7099 18.4237 24.8193 18.4477 24.9393C18.4717 25.0593 18.5357 25.1606 18.6371 25.2326L19.4157 25.7793C19.5197 25.8513 19.6371 25.8753 19.7571 25.8513C19.8771 25.8273 19.9784 25.7713 20.0584 25.6699L20.4637 25.0913C20.6077 25.1553 20.7571 25.2033 20.9171 25.2433C21.0771 25.2833 21.2264 25.3153 21.3864 25.3393L21.5144 26.0859C21.5384 26.2139 21.6024 26.3073 21.6957 26.3793C21.7997 26.4513 21.9091 26.4753 22.0371 26.4513L22.9731 26.2833C23.0931 26.2593 23.1864 26.2033 23.2664 26.1019C23.3384 25.9979 23.3704 25.8886 23.3464 25.7606L23.2264 25.0779C23.3784 25.0139 23.5197 24.9419 23.6557 24.8566C23.7917 24.7766 23.9251 24.6833 24.0531 24.5873L24.6797 25.0246C24.7837 25.0966 24.8931 25.1286 25.0211 25.1046C25.1491 25.0806 25.2424 25.0166 25.3144 24.9153L25.8611 24.1366C25.9331 24.0326 25.9571 23.9153 25.9331 23.7953C25.9091 23.6753 25.8531 23.5739 25.7491 23.4939L25.1704 23.0966C25.2344 22.9526 25.2824 22.8033 25.3224 22.6433C25.3624 22.4833 25.3944 22.3339 25.4184 22.1739L26.1651 22.0459C26.2931 22.0219 26.3864 21.9579 26.4584 21.8619C26.5304 21.7579 26.5544 21.6486 26.5304 21.5206L26.3624 20.5846C26.3384 20.4646 26.2824 20.3713 26.1811 20.2913C26.0771 20.2193 25.9677 20.1873 25.8397 20.2113L25.1571 20.3313C25.0931 20.1873 25.0211 20.0459 24.9357 19.902C24.8557 19.7579 24.7597 19.6326 24.6664 19.5126L25.1037 18.8779C25.1757 18.7739 25.2077 18.6646 25.1837 18.5446C25.1597 18.4246 25.0957 18.3233 24.9944 18.2513L24.2237 17.7099L24.2024 17.7179ZM31.2451 15.134L29.5064 15.1499C29.2531 15.1526 29.0477 14.9473 29.0451 14.6939C29.0424 14.4406 29.2477 14.2353 29.4984 14.2326L32.3597 14.2033H32.3624H32.3731H32.3757H32.3864H32.3891H32.3997H32.4024H32.4131H32.4157H32.4264H32.4291L32.4397 14.2059H32.4424L32.4531 14.2086H32.4557L32.4664 14.2113H32.4691L32.4771 14.214H32.4797L32.4877 14.2166H32.4904L32.4984 14.2193H32.5011L32.5091 14.2219H32.5117L32.5197 14.2246H32.5224L32.5304 14.2273H32.5331L32.5411 14.2299H32.5437L32.5517 14.2326H32.5544L32.5624 14.2353H32.5651L32.5731 14.2379H32.5757L32.5837 14.2433H32.5864L32.5944 14.2486H32.5971L32.6051 14.254H32.6077L32.6157 14.2593H32.6184L32.6264 14.2646H32.6291L32.6371 14.2699H32.6397L32.6477 14.2753H32.6504L32.6584 14.2806H32.6611L32.6691 14.2859H32.6717L32.6797 14.2913H32.6824L32.6904 14.2966H32.6931L32.7011 14.3019H32.7037L32.7117 14.3073L32.7144 14.3099L32.7197 14.3153L32.7224 14.3179L32.7277 14.3233L32.7331 14.3286V14.3313L32.7384 14.3393V14.3419L32.7437 14.3499V14.3526L32.7491 14.3606V14.3633L32.7544 14.3713V14.3739L32.7597 14.382V14.3846L32.7651 14.3926V14.3953L32.7704 14.4033V14.406L32.7757 14.4139V14.4166L32.7811 14.4246V14.4273L32.7864 14.4353V14.438L32.7917 14.4459V14.4486L32.7971 14.4566V14.4593L32.8024 14.4673V14.4699L32.8051 14.4779V14.4806L32.8077 14.4886V14.4913L32.8104 14.4993L32.8131 14.5073V14.5099V14.5126L32.8157 14.5206V14.5233L32.8184 14.5313V14.5339L32.8211 14.5419V14.5446L32.8237 14.5526V14.5553L32.8264 14.5633V14.5659L32.8291 14.5766V14.5793L32.8317 14.5899V14.5926L32.8344 14.6033V14.606L32.8371 14.6166V14.6273V14.63V14.6406V14.6433V14.6539V14.6566V14.6673V14.6699L32.8504 17.6273C32.8504 17.8806 32.6477 18.0859 32.3944 18.0886C32.1411 18.0886 31.9357 17.886 31.9357 17.6326L31.9277 15.7766L30.2477 17.4566C30.0691 17.6353 29.7757 17.6353 29.5971 17.4566C29.4184 17.278 29.4184 16.9846 29.5971 16.806L31.2451 15.134ZM15.4371 1.36062L13.6984 1.37662C13.4451 1.37928 13.2397 1.17395 13.2371 0.923284C13.2344 0.669951 13.4397 0.464617 13.6931 0.461951L16.5544 0.432617H16.5571H16.5677H16.5704H16.5811H16.5837H16.5944H16.5971H16.6077H16.6104H16.6211H16.6237L16.6344 0.435284H16.6371L16.6477 0.437951H16.6504L16.6611 0.440617H16.6637L16.6717 0.443284H16.6744L16.6824 0.445951H16.6851L16.6931 0.448617H16.6957L16.7037 0.451284H16.7064L16.7144 0.453951H16.7171L16.7251 0.456617H16.7277L16.7357 0.459284H16.7384L16.7464 0.461951H16.7491L16.7571 0.464617H16.7597L16.7677 0.467284H16.7704L16.7784 0.472617H16.7811L16.7891 0.477951H16.7917L16.7997 0.483284H16.8024L16.8104 0.488617H16.8131L16.8211 0.493951H16.8237L16.8317 0.499284H16.8344L16.8424 0.504617H16.8451L16.8531 0.509951H16.8557L16.8637 0.515284H16.8664L16.8744 0.520617H16.8771L16.8851 0.525951H16.8877L16.8957 0.531284H16.8984L16.9064 0.536617L16.9091 0.539284L16.9144 0.544617L16.9171 0.547284L16.9224 0.552617V0.555284L16.9277 0.560617V0.563284L16.9331 0.571284V0.57395L16.9384 0.581951V0.584617L16.9437 0.592617V0.595284L16.9491 0.603284V0.605951L16.9544 0.613951V0.616617L16.9597 0.624617V0.627284L16.9651 0.635284V0.637951L16.9704 0.645951V0.648617L16.9757 0.656617V0.659284L16.9811 0.667284V0.669951L16.9864 0.677951V0.680617L16.9917 0.688617V0.691284L16.9731 0.699284V0.70195L16.9757 0.709951V0.712617L16.9784 0.720617V0.723284L16.9811 0.731284L16.9837 0.739284V0.74195V0.744617L16.9864 0.752617V0.755284L16.9891 0.763284V0.765951L16.9917 0.77395V0.776617L16.9944 0.784617V0.787284L16.9971 0.797951V0.800617L16.9997 0.811284V0.81395L17.0024 0.824617V0.827284L17.0051 0.83795V0.840617V0.851284V0.86195V0.864617V0.875284V0.87795V0.888617V0.891284V0.90195V0.904617L17.0184 3.86195C17.0184 4.11528 16.8157 4.32062 16.5624 4.32062C16.3091 4.32062 16.1037 4.11795 16.1037 3.86462L16.0957 2.00862L14.4157 3.68862C14.2371 3.86728 13.9437 3.86728 13.7651 3.68862C13.5864 3.50995 13.5864 3.21662 13.7651 3.03795L15.4371 1.36062ZM26.0637 5.16862L22.8291 5.20062C22.4504 5.20328 22.1411 4.89928 22.1384 4.52062C22.1357 4.14195 22.4397 3.83262 22.8184 3.82995L27.7331 3.78195H27.7357H27.7517H27.7544H27.7704H27.7731H27.7891H27.7917H27.8077H27.8104L27.8237 3.78462H27.8264L27.8397 3.78728H27.8424L27.8557 3.78995H27.8584L27.8717 3.79262H27.8744L27.8877 3.79528H27.8904L27.9037 3.79795H27.9064L27.9197 3.80062H27.9224L27.9357 3.80328H27.9384L27.9517 3.80862H27.9544L27.9677 3.81395H27.9704L27.9837 3.81928H27.9864L27.9997 3.82462H28.0024L28.0157 3.82995H28.0184L28.0317 3.83528H28.0344L28.0477 3.84062H28.0504L28.0637 3.84595L28.0664 3.84862L28.0797 3.85395L28.0824 3.85662L28.0931 3.86462L28.0957 3.86728L28.1064 3.87528L28.1091 3.87795L28.1197 3.88595L28.1224 3.88862L28.1331 3.89662L28.1357 3.89928L28.1464 3.90728L28.1491 3.90995L28.1597 3.91795L28.1624 3.92062L28.1731 3.92862L28.1757 3.93128L28.1864 3.93928L28.1891 3.94195L28.1997 3.94995L28.2024 3.95262L28.2131 3.96062L28.2157 3.96328L28.2264 3.97395L28.2291 3.97662L28.2397 3.98728L28.2424 3.98995L28.2531 4.00062L28.2557 4.00328L28.2637 4.01395L28.2664 4.01662L28.2744 4.02728L28.2771 4.02995L28.2851 4.04062L28.2877 4.04328L28.2957 4.05395L28.2984 4.05662L28.3064 4.06728L28.3091 4.06995L28.3171 4.08062L28.3197 4.08328L28.3277 4.09395L28.3304 4.09662L28.3384 4.10728L28.3411 4.10995L28.3491 4.12062V4.12328L28.3571 4.13662V4.13928L28.3651 4.15262L28.3704 4.16595V4.16862L28.3757 4.18195V4.18462L28.3811 4.19795V4.20062L28.3864 4.21395V4.21662L28.3917 4.22995V4.23262L28.3971 4.24595V4.24862L28.4024 4.26195V4.26462L28.4077 4.27795V4.28062L28.4104 4.29395V4.29662L28.4131 4.30995V4.31262L28.4157 4.32595V4.32862L28.4184 4.34462L28.4211 4.35795V4.36062L28.4237 4.37395V4.37662L28.4264 4.38995V4.39262L28.4291 4.40862V4.41128V4.42728V4.42995V4.44862V4.46462V4.46728L28.4504 9.45128C28.4531 9.82995 28.1464 10.1366 27.7677 10.1393C27.3891 10.142 27.0824 9.83528 27.0797 9.45662L27.0664 6.12062L22.3091 10.8699C22.0397 11.1393 21.6051 11.1393 21.3357 10.8699C21.0664 10.6006 21.0664 10.166 21.3357 9.89662L26.0637 5.16862ZM21.4771 19.9259C21.7224 19.8859 21.9704 19.886 22.2157 19.9419C22.4531 19.9979 22.6691 20.094 22.8664 20.2273C23.0557 20.3633 23.2237 20.5366 23.3597 20.7446C23.4957 20.9499 23.5811 21.1819 23.6211 21.4273C23.6611 21.6726 23.6611 21.9206 23.6051 22.1659C23.5491 22.4033 23.4531 22.6193 23.3197 22.8166C23.1837 23.0059 23.0104 23.174 22.8024 23.3099C22.5971 23.4459 22.3651 23.5313 22.1197 23.5713C21.8744 23.6113 21.6264 23.6113 21.3811 23.5553C21.1437 23.4993 20.9277 23.4033 20.7304 23.2699C20.5411 23.1339 20.3731 22.9606 20.2371 22.7526C20.1011 22.5473 20.0157 22.3153 19.9757 22.0699C19.9357 21.8246 19.9357 21.5766 19.9917 21.3313C20.0477 21.094 20.1437 20.8779 20.2771 20.6806C20.4131 20.4913 20.5864 20.3233 20.7944 20.1873C21.0024 20.0539 21.2317 19.9659 21.4771 19.9259ZM14.2664 8.79262C14.2264 8.75262 14.1944 8.72862 14.1544 8.71262C14.1224 8.69662 14.0824 8.68862 14.0344 8.68862C13.9864 8.68862 13.9464 8.69662 13.9144 8.71262C13.8824 8.72862 13.8424 8.75262 13.8104 8.78462L13.8024 8.79262L12.9037 9.69128C12.7277 9.86728 12.4504 9.88862 12.2531 9.74728C12.1491 9.68328 12.0477 9.61928 11.9277 9.55795C11.7997 9.49395 11.6824 9.42995 11.5704 9.37395C11.4504 9.31795 11.3251 9.26195 11.1971 9.21395C11.0851 9.17395 10.9597 9.12595 10.8077 9.07795C10.5944 9.00595 10.4584 8.80862 10.4584 8.59262V7.21928C10.4584 7.17128 10.4504 7.12328 10.4344 7.09128C10.4184 7.05928 10.3944 7.01928 10.3624 6.99528C10.3304 6.96328 10.2984 6.93928 10.2664 6.92328C10.2344 6.90728 10.1864 6.89928 10.1384 6.89928H8.41307C8.36507 6.89928 8.32507 6.90728 8.29307 6.91528C8.26107 6.93128 8.22107 6.95528 8.18107 6.99528C8.14907 7.02728 8.12507 7.05928 8.11707 7.09128C8.10107 7.12328 8.09307 7.17128 8.09307 7.21928V8.48328C8.09307 8.73662 7.90907 8.94462 7.67174 8.99262C7.53574 9.02462 7.41041 9.05662 7.29841 9.08862C7.17041 9.12862 7.05307 9.16862 6.92507 9.21662C6.80507 9.26462 6.67974 9.31262 6.55974 9.37662C6.43174 9.43262 6.32241 9.49662 6.21041 9.55262C6.00507 9.66462 5.76507 9.62462 5.60774 9.46462L4.61574 8.48062C4.60774 8.47262 4.60774 8.47262 4.60774 8.46462C4.57574 8.43262 4.54374 8.40862 4.51174 8.39262C4.47974 8.37662 4.44774 8.37662 4.39974 8.37662C4.35174 8.37662 4.31174 8.38462 4.27974 8.40062C4.23974 8.41662 4.20774 8.44062 4.16774 8.48062L2.95974 9.69662C2.91974 9.73662 2.89574 9.76862 2.87974 9.80862C2.86374 9.84062 2.85574 9.88062 2.85574 9.92862C2.85574 9.97662 2.86374 10.0166 2.87974 10.0486C2.89574 10.0806 2.91974 10.1206 2.95174 10.1526V10.1606L3.85041 11.0593C4.02374 11.2326 4.04774 11.5126 3.90641 11.71C3.84241 11.814 3.77841 11.9153 3.71707 12.0353C3.65307 12.1633 3.58907 12.2806 3.53307 12.3926C3.47707 12.5126 3.42107 12.6379 3.37307 12.766C3.33307 12.8779 3.28507 13.0033 3.23707 13.1553C3.16507 13.3686 2.96774 13.5046 2.75174 13.5046H1.38374C1.33574 13.5046 1.28774 13.5126 1.25574 13.5286C1.22374 13.5446 1.19174 13.5686 1.15974 13.5926C1.12774 13.6246 1.10374 13.6566 1.09574 13.6886C1.07974 13.7206 1.07174 13.7686 1.07174 13.8166V15.5473C1.07174 15.5953 1.07974 15.6353 1.08774 15.6673C1.10374 15.6993 1.12774 15.7393 1.16774 15.7793C1.19974 15.8113 1.23174 15.8353 1.26374 15.8433C1.29574 15.8593 1.34374 15.8673 1.39174 15.8673H2.65574C2.90907 15.8673 3.11707 16.0486 3.16507 16.2886C3.19707 16.4246 3.22907 16.5499 3.26107 16.6539C3.30107 16.7819 3.34107 16.9073 3.38907 17.0353C3.43707 17.1553 3.48507 17.2806 3.54907 17.4086C3.61307 17.5446 3.66907 17.6619 3.72507 17.7739C3.82907 17.9793 3.78907 18.2193 3.62907 18.3686L2.64507 19.3446L2.63174 19.3393C2.59974 19.3713 2.57574 19.4033 2.55974 19.4353C2.54374 19.4673 2.54374 19.4993 2.54374 19.5473C2.54374 19.5953 2.55174 19.6353 2.56774 19.6673C2.58374 19.7073 2.60774 19.7473 2.64774 19.7793L3.84774 20.9953C3.87974 21.0273 3.91974 21.0513 3.95974 21.0673C3.99974 21.0833 4.03974 21.0913 4.08774 21.0913C4.13574 21.0913 4.18374 21.0833 4.22374 21.0673C4.25574 21.0513 4.29574 21.0273 4.32774 21.0033L5.21841 20.0966C5.39441 19.9126 5.67174 19.8993 5.86907 20.0326C5.97307 20.0966 6.07441 20.1606 6.19441 20.2219C6.32241 20.2859 6.43974 20.3499 6.55174 20.4033C6.67174 20.4593 6.79707 20.5153 6.92507 20.5633C7.03707 20.6033 7.16241 20.6513 7.31441 20.6993C7.52774 20.7713 7.66374 20.9686 7.66374 21.1846V22.5579C7.66374 22.6059 7.67174 22.6539 7.68774 22.6859C7.70374 22.7179 7.72774 22.7579 7.75174 22.7819C7.81574 22.8459 7.88774 22.8699 7.98107 22.8699H9.71174C9.75974 22.8699 9.79974 22.8619 9.83174 22.854C9.86374 22.8379 9.90374 22.8139 9.94374 22.7739C9.97574 22.7419 9.99974 22.7099 10.0077 22.6779C10.0237 22.6459 10.0317 22.5979 10.0317 22.5499V21.2859C10.0317 21.0326 10.2157 20.8246 10.4531 20.7766C10.5891 20.7446 10.7144 20.7126 10.8264 20.6806C10.9544 20.6406 11.0717 20.6006 11.1997 20.5526C11.3197 20.5046 11.4451 20.4566 11.5731 20.3926C11.7091 20.3286 11.8264 20.2726 11.9384 20.2166C12.1437 20.1126 12.3837 20.1526 12.5331 20.3126L13.5091 21.2966L13.5171 21.3046C13.5491 21.3366 13.5811 21.3606 13.6131 21.3766C13.6451 21.3926 13.6851 21.3926 13.7331 21.3926C13.7811 21.3926 13.8211 21.3846 13.8531 21.3686C13.8851 21.3526 13.9171 21.3286 13.9491 21.2966C13.9571 21.2886 13.9651 21.2806 13.9731 21.2806L15.1811 20.0886C15.2131 20.0566 15.2371 20.0166 15.2531 19.9766C15.2691 19.9366 15.2771 19.8966 15.2771 19.8486C15.2771 19.8006 15.2691 19.7526 15.2531 19.7126C15.2371 19.6806 15.2131 19.6406 15.1891 19.6086L14.2824 18.7179C14.0984 18.5446 14.0851 18.2646 14.2184 18.0673C14.2824 17.9633 14.3464 17.8619 14.4077 17.742C14.4717 17.614 14.5357 17.4966 14.5917 17.3846C14.6477 17.2646 14.7037 17.1393 14.7517 17.0113C14.7917 16.8993 14.8397 16.7739 14.8877 16.622C14.9597 16.4086 15.1571 16.2726 15.3731 16.2726H16.7464C16.7944 16.2726 16.8424 16.2646 16.8744 16.2486C16.9064 16.2326 16.9464 16.2086 16.9704 16.1846C17.0344 16.1206 17.0584 16.0486 17.0584 15.9553V14.2246C17.0584 14.1766 17.0504 14.1366 17.0424 14.1046C17.0264 14.0726 17.0024 14.0326 16.9624 13.9926C16.9304 13.9606 16.8984 13.9366 16.8664 13.9286C16.8344 13.9126 16.7864 13.9046 16.7384 13.9046H15.4744C15.2211 13.9046 15.0051 13.7153 14.9651 13.4753C14.9331 13.3633 14.9011 13.2459 14.8691 13.1259C14.8291 13.0059 14.7891 12.8806 14.7331 12.7446C14.7331 12.7366 14.7251 12.7286 14.7251 12.7206C14.6771 12.5926 14.6291 12.4833 14.5811 12.3713C14.5251 12.2513 14.4691 12.1339 14.4051 12.0219C14.2931 11.8166 14.3331 11.5766 14.4931 11.4193L15.4771 10.4273C15.4771 10.4193 15.4851 10.4193 15.4931 10.4193C15.5251 10.3873 15.5491 10.3553 15.5651 10.3233C15.5811 10.2913 15.5811 10.2593 15.5811 10.2113C15.5811 10.1633 15.5731 10.1233 15.5571 10.0913C15.5411 10.0513 15.5171 10.0193 15.4771 9.97928L14.2611 8.77128L14.2664 8.79262ZM14.5517 7.76595C14.7197 7.83795 14.8611 7.93395 14.9891 8.05928L16.2051 9.26728H16.2131C16.3411 9.39528 16.4344 9.53662 16.5064 9.69662C16.5784 9.86462 16.6104 10.03 16.6104 10.214C16.6104 10.3953 16.5704 10.5713 16.5064 10.7313C16.4344 10.8913 16.3384 11.0326 16.2051 11.1526L15.4904 11.8753C15.4984 11.8993 15.5144 11.9233 15.5224 11.9473C15.5864 12.0833 15.6424 12.2246 15.6957 12.3606C15.6957 12.3686 15.7037 12.3766 15.7037 12.3846C15.7597 12.5206 15.8077 12.67 15.8557 12.83L15.8717 12.886H16.7464C16.9277 12.886 17.1037 12.9179 17.2637 12.99C17.4237 13.0539 17.5651 13.1579 17.6931 13.2833L17.7011 13.2913C17.8291 13.4193 17.9224 13.5606 17.9864 13.7206C18.0504 13.8806 18.0904 14.054 18.0904 14.2299V15.9606C18.0904 16.3339 17.9624 16.6513 17.7011 16.9126C17.5731 17.0406 17.4237 17.142 17.2637 17.2059C17.1037 17.27 16.9304 17.3019 16.7464 17.3019H15.7304C15.7224 17.3259 15.7064 17.358 15.6984 17.382C15.6424 17.5259 15.5784 17.6673 15.5171 17.8113C15.4451 17.9633 15.3811 18.1046 15.3117 18.2326L15.2877 18.2806L15.9064 18.8913L15.9304 18.9153C16.0584 19.0433 16.1437 19.1926 16.2077 19.3526C16.2717 19.5126 16.3037 19.6779 16.3037 19.8619C16.3037 20.0379 16.2717 20.2033 16.2077 20.3633C16.1437 20.5233 16.0557 20.6646 15.9304 20.8006L15.9144 20.8166L14.6984 22.0246C14.5704 22.1606 14.4291 22.2539 14.2691 22.3259C14.1091 22.3979 13.9357 22.4299 13.7437 22.4299C13.5624 22.4299 13.3864 22.3899 13.2184 22.3259C13.0504 22.2539 12.9091 22.15 12.7891 22.0246L12.0824 21.3099C12.0584 21.3259 12.0344 21.334 12.0024 21.3419C11.8664 21.398 11.7251 21.4619 11.5731 21.518C11.4291 21.5739 11.2797 21.6219 11.1277 21.6699C11.1037 21.6779 11.0877 21.6859 11.0637 21.6859V22.5526C11.0637 22.7339 11.0317 22.9099 10.9597 23.0699C10.8957 23.2299 10.7917 23.3713 10.6664 23.4993L10.6584 23.5073C10.5304 23.6353 10.3891 23.7286 10.2291 23.7926C10.0691 23.8566 9.89574 23.8966 9.71974 23.8966H7.98907C7.61574 23.8966 7.29841 23.7686 7.03707 23.5073C6.90907 23.3793 6.80774 23.2299 6.74374 23.0699C6.67974 22.9099 6.64774 22.7366 6.64774 22.5526V21.5366C6.62374 21.5286 6.59174 21.5126 6.56774 21.5046C6.42374 21.4486 6.28241 21.3846 6.13841 21.3206C5.98641 21.2486 5.84507 21.1846 5.71707 21.1153L5.66907 21.0913L5.05841 21.7099L5.03441 21.7339C4.90641 21.8619 4.75707 21.9473 4.59707 22.0113C4.43707 22.0753 4.27174 22.1073 4.08774 22.1073C3.91174 22.1073 3.74641 22.0753 3.58641 22.0113C3.42641 21.9473 3.28507 21.8593 3.14907 21.7339L3.13307 21.7179L1.91707 20.4859C1.78907 20.3579 1.69574 20.2166 1.62374 20.0566C1.55174 19.8886 1.51974 19.7233 1.51974 19.5393C1.51974 19.3553 1.55974 19.1819 1.62374 19.0219C1.69574 18.8619 1.79974 18.7206 1.92507 18.5926L2.63974 17.8859C2.62374 17.8619 2.61574 17.8379 2.60774 17.806C2.55174 17.67 2.48774 17.5286 2.43174 17.3766C2.37574 17.2246 2.31974 17.0833 2.27974 16.9313L2.26374 16.8673H1.40774C1.22374 16.8673 1.05041 16.8353 0.890406 16.7633C0.730406 16.6993 0.589073 16.5953 0.461073 16.4699L0.453073 16.462C0.325073 16.334 0.23174 16.1926 0.16774 16.0326C0.106406 15.8673 0.0664062 15.6939 0.0664062 15.5179V13.7873C0.0664062 13.606 0.0984063 13.4379 0.162406 13.2699C0.226406 13.11 0.330406 12.9686 0.45574 12.8326C0.58374 12.7046 0.733073 12.6033 0.893073 12.5393C1.05307 12.4753 1.22641 12.4433 1.41041 12.4433H2.42641C2.43441 12.4193 2.45041 12.3873 2.45841 12.3633C2.51441 12.2193 2.57841 12.078 2.63974 11.934C2.71174 11.7819 2.77574 11.6406 2.84507 11.5126L2.86907 11.4646L2.25841 10.846C2.13041 10.7179 2.02907 10.5766 1.96507 10.4086C1.89307 10.2406 1.86107 10.0673 1.86107 9.89128C1.86107 9.70995 1.89307 9.54195 1.96507 9.37395C2.03707 9.20595 2.13307 9.06462 2.25841 8.93662L3.46641 7.72062V7.71262C3.59441 7.58462 3.73574 7.49128 3.89574 7.41928C4.06374 7.34728 4.22907 7.31528 4.41307 7.31528C4.59707 7.31528 4.77041 7.35528 4.93041 7.41928C5.09041 7.49128 5.23174 7.58728 5.35174 7.72062L6.07441 8.43528C6.09841 8.42728 6.12241 8.41128 6.13841 8.40328C6.27441 8.33928 6.41574 8.28328 6.56774 8.22195C6.71174 8.16595 6.86107 8.11795 7.01307 8.06995C7.03707 8.06195 7.05307 8.05395 7.07707 8.05395V7.18728C7.07707 7.00328 7.10907 6.82995 7.18107 6.66995C7.24507 6.50995 7.34907 6.36862 7.47441 6.24062L7.48241 6.23262C7.61041 6.10462 7.75174 6.01128 7.91174 5.94728C8.07174 5.88328 8.24507 5.84328 8.42107 5.84328H10.1517C10.3331 5.84328 10.5011 5.87528 10.6691 5.93928C10.8371 6.00328 10.9784 6.10728 11.1064 6.23262C11.2344 6.36062 11.3357 6.50995 11.3997 6.66995C11.4637 6.82995 11.4957 7.00328 11.4957 7.18728V8.20328C11.5197 8.21128 11.5517 8.22728 11.5757 8.23528C11.7197 8.29128 11.8611 8.35528 12.0051 8.41928C12.1571 8.49128 12.2984 8.55528 12.4264 8.62462L12.4744 8.64862L13.0931 8.03795C13.2211 7.90995 13.3624 7.80862 13.5304 7.74462C13.6984 7.67262 13.8717 7.64062 14.0477 7.64062C14.2317 7.64062 14.3971 7.67262 14.5651 7.74462V7.76595H14.5517ZM9.06374 10.9846C9.32508 10.9846 9.58907 11.0086 9.84241 11.0646C10.0877 11.1126 10.3357 11.1926 10.5811 11.294C10.8104 11.398 11.0344 11.5153 11.2397 11.6513C11.4451 11.7873 11.6371 11.9446 11.8104 12.1206C11.9864 12.2966 12.1437 12.4859 12.2797 12.6993C12.4237 12.9046 12.5411 13.1286 12.6371 13.358C12.6451 13.374 12.6451 13.3899 12.6531 13.3979C12.7491 13.6273 12.8211 13.8673 12.8664 14.0966C12.9144 14.3499 12.9464 14.6139 12.9464 14.8753C12.9464 15.1366 12.9224 15.4006 12.8664 15.6539C12.8184 15.8993 12.7384 16.1473 12.6371 16.3926C12.5331 16.6219 12.4157 16.8459 12.2797 17.0513C12.1357 17.2566 11.9864 17.4486 11.8104 17.6299C11.6344 17.8059 11.4451 17.9633 11.2317 18.0993C11.0264 18.2433 10.8024 18.3606 10.5731 18.4566C10.5571 18.4646 10.5411 18.4646 10.5331 18.4726C10.3037 18.5686 10.0637 18.6406 9.83441 18.6859C9.58107 18.7339 9.31707 18.7659 9.05574 18.7659C8.79441 18.7659 8.53041 18.7419 8.27707 18.6859C8.03174 18.6379 7.78374 18.5579 7.53841 18.4566C7.30907 18.3526 7.08507 18.2353 6.87974 18.0993C6.67441 17.9633 6.48241 17.8059 6.30907 17.6299C6.13307 17.4539 5.97574 17.2646 5.83974 17.0513C5.69574 16.8459 5.57841 16.6219 5.48241 16.3926C5.47441 16.3766 5.47441 16.3606 5.46641 16.3526C5.37041 16.1233 5.29841 15.8833 5.25307 15.6539C5.20507 15.4006 5.17307 15.1366 5.17307 14.8753C5.17307 14.6139 5.19707 14.3499 5.25307 14.0966C5.30107 13.8513 5.38107 13.6033 5.48241 13.358C5.58641 13.1286 5.70374 12.9046 5.83974 12.6993C5.97574 12.4939 6.13307 12.302 6.30907 12.1206C6.48241 11.9473 6.67441 11.7873 6.87974 11.6513C7.08507 11.5073 7.30907 11.3899 7.53841 11.294C7.55441 11.2859 7.57041 11.2859 7.57841 11.2779C7.80774 11.1819 8.04774 11.11 8.27707 11.0646C8.53041 11.0166 8.79441 10.9846 9.05574 10.9846H9.06374ZM9.64507 12.0646C9.46374 12.0246 9.26374 12.0086 9.06641 12.0086C8.86907 12.0086 8.67707 12.0246 8.48774 12.0646C8.30641 12.1046 8.13841 12.1526 7.97841 12.2166C7.97041 12.2246 7.96241 12.2246 7.94641 12.2326C7.76507 12.3126 7.59707 12.4006 7.44507 12.5019C7.29307 12.6059 7.15174 12.7153 7.02374 12.8433C6.89574 12.9713 6.77841 13.1126 6.68241 13.2646C6.57841 13.4166 6.49307 13.582 6.41307 13.7659C6.34107 13.9339 6.28507 14.1153 6.24507 14.3073C6.20507 14.4886 6.18907 14.6886 6.18907 14.886C6.18907 15.0833 6.20507 15.2753 6.24507 15.4646C6.28507 15.6459 6.33307 15.8139 6.39707 15.9739C6.40507 15.9819 6.40507 15.99 6.41307 16.0059C6.49307 16.1899 6.58107 16.3553 6.68241 16.5073C6.78641 16.6593 6.89574 16.8006 7.02374 16.9286C7.15174 17.0566 7.29307 17.174 7.44507 17.2699C7.59707 17.3739 7.76241 17.4593 7.94641 17.5393C8.11441 17.6113 8.29574 17.6673 8.48774 17.7073C8.66907 17.7473 8.86907 17.7633 9.06641 17.7633C9.26374 17.7633 9.45574 17.7473 9.64507 17.7073C9.82907 17.6673 9.99441 17.6193 10.1544 17.5553C10.1624 17.5473 10.1704 17.5473 10.1864 17.5393C10.3677 17.4593 10.5357 17.3713 10.6877 17.2699C10.8397 17.1659 10.9811 17.0566 11.1091 16.9286C11.2371 16.8006 11.3544 16.6593 11.4504 16.5073C11.5544 16.3553 11.6397 16.1899 11.7197 16.0059C11.7917 15.8379 11.8477 15.6566 11.8877 15.4646C11.9277 15.2806 11.9437 15.0833 11.9437 14.886C11.9437 14.6886 11.9277 14.4966 11.8877 14.3073C11.8477 14.1259 11.7997 13.9579 11.7357 13.7979C11.7277 13.7899 11.7277 13.7819 11.7197 13.7659C11.6397 13.582 11.5517 13.4166 11.4504 13.2646C11.3464 13.1126 11.2371 12.9713 11.1091 12.8433C10.9811 12.7153 10.8397 12.5979 10.6877 12.5019C10.5357 12.3979 10.3704 12.3126 10.1864 12.2326C10.0184 12.1579 9.83441 12.1046 9.64507 12.0646Z" fill="#303792"/>
</svg>
