<svg width="145" height="44" viewBox="0 0 145 44" fill="none" xmlns="http://www.w3.org/2000/svg">
<rect width="145" height="44" rx="7.32323" fill="#F5F5F5"/>
<path d="M49.5599 31.2888C48.6932 31.2888 47.9392 31.0981 47.2979 30.7168C46.6565 30.3268 46.1582 29.7851 45.8029 29.0918C45.4475 28.3898 45.2699 27.5751 45.2699 26.6478C45.2699 25.7118 45.4519 24.8885 45.8159 24.1778C46.1799 23.4585 46.7042 22.8951 47.3889 22.4878C48.0735 22.0805 48.8925 21.8768 49.8459 21.8768C50.9119 21.8768 51.7959 22.1325 52.4979 22.6438C53.2085 23.1551 53.6679 23.8658 53.8759 24.7758H51.9129C51.7829 24.3771 51.5402 24.0651 51.1849 23.8398C50.8382 23.6058 50.3875 23.4888 49.8329 23.4888C49.2435 23.4888 48.7409 23.6188 48.3249 23.8788C47.9089 24.1388 47.5925 24.5028 47.3759 24.9708C47.1592 25.4388 47.0509 25.9978 47.0509 26.6478C47.0509 27.3065 47.1592 27.8655 47.3759 28.3248C47.5925 28.7841 47.9002 29.1351 48.2989 29.3778C48.7062 29.6118 49.1829 29.7288 49.7289 29.7288C50.5262 29.7288 51.1285 29.5165 51.5359 29.0918C51.9519 28.6585 52.1989 28.0995 52.2769 27.4148H50.0409V26.1018H54.0449V31.1328H52.4199L52.2899 29.9758C52.0992 30.2618 51.8739 30.5045 51.6139 30.7038C51.3625 30.8945 51.0679 31.0375 50.7299 31.1328C50.3919 31.2368 50.0019 31.2888 49.5599 31.2888ZM58.742 31.2888C58.118 31.2888 57.5547 31.1458 57.052 30.8598C56.558 30.5651 56.1637 30.1621 55.869 29.6508C55.583 29.1308 55.44 28.5371 55.44 27.8698C55.44 27.1851 55.583 26.5871 55.869 26.0758C56.1637 25.5558 56.5624 25.1528 57.065 24.8668C57.5677 24.5721 58.131 24.4248 58.755 24.4248C59.3877 24.4248 59.951 24.5721 60.445 24.8668C60.9477 25.1528 61.342 25.5558 61.628 26.0758C61.9227 26.5871 62.07 27.1808 62.07 27.8568C62.07 28.5328 61.9227 29.1308 61.628 29.6508C61.342 30.1621 60.9477 30.5651 60.445 30.8598C59.9424 31.1458 59.3747 31.2888 58.742 31.2888ZM58.742 29.7678C59.0367 29.7678 59.2967 29.6985 59.522 29.5598C59.756 29.4211 59.938 29.2088 60.068 28.9228C60.2067 28.6368 60.276 28.2815 60.276 27.8568C60.276 27.4321 60.2067 27.0811 60.068 26.8038C59.938 26.5178 59.756 26.3055 59.522 26.1668C59.2967 26.0195 59.041 25.9458 58.755 25.9458C58.4777 25.9458 58.222 26.0195 57.988 26.1668C57.754 26.3055 57.5677 26.5178 57.429 26.8038C57.299 27.0811 57.234 27.4321 57.234 27.8568C57.234 28.2815 57.299 28.6368 57.429 28.9228C57.5677 29.2088 57.7497 29.4211 57.975 29.5598C58.209 29.6985 58.4647 29.7678 58.742 29.7678ZM66.6766 31.2888C66.0526 31.2888 65.4893 31.1458 64.9866 30.8598C64.4926 30.5651 64.0983 30.1621 63.8036 29.6508C63.5176 29.1308 63.3746 28.5371 63.3746 27.8698C63.3746 27.1851 63.5176 26.5871 63.8036 26.0758C64.0983 25.5558 64.4969 25.1528 64.9996 24.8668C65.5023 24.5721 66.0656 24.4248 66.6896 24.4248C67.3223 24.4248 67.8856 24.5721 68.3796 24.8668C68.8823 25.1528 69.2766 25.5558 69.5626 26.0758C69.8573 26.5871 70.0046 27.1808 70.0046 27.8568C70.0046 28.5328 69.8573 29.1308 69.5626 29.6508C69.2766 30.1621 68.8823 30.5651 68.3796 30.8598C67.8769 31.1458 67.3093 31.2888 66.6766 31.2888ZM66.6766 29.7678C66.9713 29.7678 67.2313 29.6985 67.4566 29.5598C67.6906 29.4211 67.8726 29.2088 68.0026 28.9228C68.1413 28.6368 68.2106 28.2815 68.2106 27.8568C68.2106 27.4321 68.1413 27.0811 68.0026 26.8038C67.8726 26.5178 67.6906 26.3055 67.4566 26.1668C67.2313 26.0195 66.9756 25.9458 66.6896 25.9458C66.4123 25.9458 66.1566 26.0195 65.9226 26.1668C65.6886 26.3055 65.5023 26.5178 65.3636 26.8038C65.2336 27.0811 65.1686 27.4321 65.1686 27.8568C65.1686 28.2815 65.2336 28.6368 65.3636 28.9228C65.5023 29.2088 65.6843 29.4211 65.9096 29.5598C66.1436 29.6985 66.3993 29.7678 66.6766 29.7678ZM73.9192 34.1488C73.2952 34.1488 72.7492 34.0708 72.2812 33.9148C71.8132 33.7675 71.4492 33.5378 71.1892 33.2258C70.9379 32.9225 70.8122 32.5455 70.8122 32.0948C70.8122 31.7915 70.8902 31.5055 71.0462 31.2368C71.2022 30.9681 71.4276 30.7255 71.7222 30.5088C72.0256 30.2835 72.4026 30.0928 72.8532 29.9368L73.5162 30.7948C73.1176 30.9248 72.8272 31.0851 72.6452 31.2758C72.4719 31.4751 72.3852 31.6875 72.3852 31.9128C72.3852 32.1121 72.4502 32.2811 72.5802 32.4198C72.7189 32.5585 72.9009 32.6581 73.1262 32.7188C73.3602 32.7881 73.6202 32.8228 73.9062 32.8228C74.1836 32.8228 74.4219 32.7881 74.6212 32.7188C74.8292 32.6495 74.9896 32.5455 75.1022 32.4068C75.2236 32.2768 75.2842 32.1208 75.2842 31.9388C75.2842 31.7048 75.2019 31.5141 75.0372 31.3668C74.8726 31.2195 74.5432 31.1285 74.0492 31.0938C73.6072 31.0591 73.2129 31.0115 72.8662 30.9508C72.5282 30.8815 72.2292 30.8035 71.9692 30.7168C71.7092 30.6215 71.4882 30.5175 71.3062 30.4048C71.1329 30.2921 70.9899 30.1795 70.8772 30.0668V29.7678L72.2682 28.2728L73.5292 28.6758L71.8912 30.2878L72.3852 29.4298C72.4806 29.4818 72.5716 29.5338 72.6582 29.5858C72.7536 29.6291 72.8706 29.6725 73.0092 29.7158C73.1479 29.7505 73.3299 29.7851 73.5552 29.8198C73.7806 29.8545 74.0666 29.8848 74.4132 29.9108C74.9852 29.9628 75.4532 30.0711 75.8172 30.2358C76.1899 30.4005 76.4629 30.6215 76.6362 30.8988C76.8096 31.1675 76.8962 31.5011 76.8962 31.8998C76.8962 32.2898 76.7879 32.6538 76.5712 32.9918C76.3632 33.3385 76.0382 33.6158 75.5962 33.8238C75.1542 34.0405 74.5952 34.1488 73.9192 34.1488ZM73.9192 29.1958C73.3732 29.1958 72.9009 29.0918 72.5022 28.8838C72.1122 28.6671 71.8089 28.3811 71.5922 28.0258C71.3842 27.6618 71.2802 27.2588 71.2802 26.8168C71.2802 26.3748 71.3842 25.9761 71.5922 25.6208C71.8089 25.2568 72.1122 24.9665 72.5022 24.7498C72.9009 24.5331 73.3732 24.4248 73.9192 24.4248C74.4739 24.4248 74.9462 24.5331 75.3362 24.7498C75.7349 24.9665 76.0382 25.2568 76.2462 25.6208C76.4542 25.9761 76.5582 26.3748 76.5582 26.8168C76.5582 27.2588 76.4542 27.6618 76.2462 28.0258C76.0382 28.3811 75.7349 28.6671 75.3362 28.8838C74.9462 29.0918 74.4739 29.1958 73.9192 29.1958ZM73.9192 27.8568C74.2572 27.8568 74.5302 27.7701 74.7382 27.5968C74.9462 27.4235 75.0502 27.1678 75.0502 26.8298C75.0502 26.4918 74.9462 26.2361 74.7382 26.0628C74.5302 25.8808 74.2572 25.7898 73.9192 25.7898C73.5899 25.7898 73.3169 25.8808 73.1002 26.0628C72.8922 26.2361 72.7882 26.4918 72.7882 26.8298C72.7882 27.1678 72.8922 27.4235 73.1002 27.5968C73.3169 27.7701 73.5899 27.8568 73.9192 27.8568ZM75.0112 25.8288L74.7252 24.5808H77.4162V25.6208L75.0112 25.8288ZM78.8424 31.1328V21.7728H80.5974V31.1328H78.8424ZM85.4542 31.2888C84.7955 31.2888 84.2105 31.1501 83.6992 30.8728C83.1965 30.5868 82.8022 30.1925 82.5162 29.6898C82.2389 29.1785 82.1002 28.5891 82.1002 27.9218C82.1002 27.2371 82.2389 26.6348 82.5162 26.1148C82.7935 25.5861 83.1835 25.1745 83.6862 24.8798C84.1975 24.5765 84.7869 24.4248 85.4542 24.4248C86.1042 24.4248 86.6719 24.5678 87.1572 24.8538C87.6425 25.1398 88.0195 25.5255 88.2882 26.0108C88.5569 26.4961 88.6912 27.0465 88.6912 27.6618C88.6912 27.7485 88.6912 27.8481 88.6912 27.9608C88.6912 28.0648 88.6825 28.1731 88.6652 28.2858H83.3482V27.2198H86.9232C86.8972 26.7951 86.7455 26.4615 86.4682 26.2188C86.1995 25.9761 85.8615 25.8548 85.4542 25.8548C85.1595 25.8548 84.8865 25.9241 84.6352 26.0628C84.3839 26.1928 84.1845 26.3965 84.0372 26.6738C83.8985 26.9511 83.8292 27.3021 83.8292 27.7268V28.1038C83.8292 28.4591 83.8942 28.7711 84.0242 29.0398C84.1629 29.2998 84.3535 29.5035 84.5962 29.6508C84.8389 29.7895 85.1205 29.8588 85.4412 29.8588C85.7619 29.8588 86.0262 29.7895 86.2342 29.6508C86.4509 29.5121 86.6112 29.3345 86.7152 29.1178H88.5092C88.3879 29.5251 88.1842 29.8935 87.8982 30.2228C87.6122 30.5521 87.2612 30.8121 86.8452 31.0028C86.4292 31.1935 85.9655 31.2888 85.4542 31.2888ZM93.2271 31.1328V22.0328H96.6331C97.3697 22.0328 97.9807 22.1585 98.4661 22.4098C98.9514 22.6611 99.3111 22.9991 99.5451 23.4238C99.7791 23.8485 99.8961 24.3338 99.8961 24.8798C99.8961 25.3825 99.7834 25.8461 99.5581 26.2708C99.3327 26.6955 98.9774 27.0421 98.4921 27.3108C98.0067 27.5708 97.3871 27.7008 96.6331 27.7008H94.9821V31.1328H93.2271ZM94.9821 26.2838H96.5291C97.0924 26.2838 97.4954 26.1581 97.7381 25.9068C97.9894 25.6468 98.1151 25.3045 98.1151 24.8798C98.1151 24.4291 97.9894 24.0825 97.7381 23.8398C97.4954 23.5885 97.0924 23.4628 96.5291 23.4628H94.9821V26.2838ZM101.173 31.1328V21.7728H102.928V31.1328H101.173ZM106.849 31.2888C106.303 31.2888 105.853 31.2021 105.497 31.0288C105.142 30.8468 104.878 30.6085 104.704 30.3138C104.54 30.0105 104.457 29.6768 104.457 29.3128C104.457 28.9141 104.557 28.5631 104.756 28.2598C104.964 27.9565 105.272 27.7181 105.679 27.5448C106.095 27.3715 106.615 27.2848 107.239 27.2848H108.864C108.864 26.9641 108.821 26.6998 108.734 26.4918C108.648 26.2751 108.513 26.1148 108.331 26.0108C108.149 25.9068 107.907 25.8548 107.603 25.8548C107.274 25.8548 106.992 25.9285 106.758 26.0758C106.533 26.2145 106.394 26.4311 106.342 26.7258H104.639C104.683 26.2578 104.834 25.8548 105.094 25.5168C105.363 25.1701 105.714 24.9015 106.147 24.7108C106.589 24.5201 107.079 24.4248 107.616 24.4248C108.232 24.4248 108.765 24.5288 109.215 24.7368C109.666 24.9448 110.013 25.2438 110.255 25.6338C110.498 26.0238 110.619 26.5048 110.619 27.0768V31.1328H109.137L108.942 30.1318C108.847 30.3051 108.734 30.4611 108.604 30.5998C108.474 30.7385 108.323 30.8598 108.149 30.9638C107.976 31.0678 107.781 31.1458 107.564 31.1978C107.348 31.2585 107.109 31.2888 106.849 31.2888ZM107.265 29.9368C107.491 29.9368 107.69 29.8978 107.863 29.8198C108.045 29.7331 108.201 29.6205 108.331 29.4818C108.461 29.3345 108.561 29.1698 108.63 28.9878C108.708 28.7971 108.76 28.5935 108.786 28.3768V28.3638H107.447C107.179 28.3638 106.958 28.3985 106.784 28.4678C106.62 28.5285 106.498 28.6195 106.42 28.7408C106.342 28.8621 106.303 29.0008 106.303 29.1568C106.303 29.3301 106.342 29.4731 106.42 29.5858C106.498 29.6985 106.611 29.7851 106.758 29.8458C106.906 29.9065 107.075 29.9368 107.265 29.9368ZM112.86 33.9928L114.446 30.4048H114.056L111.43 24.5808H113.341L115.213 28.8058L116.903 24.5808H118.762L114.719 33.9928H112.86Z" fill="#303792"/>
<path d="M48.008 16.096C47.48 16.096 47.0187 15.976 46.624 15.736C46.2293 15.496 45.9227 15.16 45.704 14.728C45.4853 14.296 45.376 13.792 45.376 13.216C45.376 12.6453 45.4853 12.1413 45.704 11.704C45.928 11.2667 46.2453 10.9253 46.656 10.68C47.072 10.4293 47.5627 10.304 48.128 10.304C48.7627 10.304 49.2933 10.4587 49.72 10.768C50.1467 11.072 50.4213 11.496 50.544 12.04H49.632C49.552 11.7307 49.384 11.488 49.128 11.312C48.872 11.1307 48.536 11.04 48.12 11.04C47.7253 11.04 47.3813 11.128 47.088 11.304C46.8 11.48 46.5787 11.7307 46.424 12.056C46.2693 12.3813 46.192 12.768 46.192 13.216C46.192 13.6693 46.2693 14.0587 46.424 14.384C46.5787 14.7093 46.7973 14.9573 47.08 15.128C47.3627 15.2987 47.688 15.384 48.056 15.384C48.6213 15.384 49.0453 15.2213 49.328 14.896C49.616 14.5707 49.784 14.136 49.832 13.592H48.288V12.976H50.64V16H49.912L49.84 15.144C49.712 15.352 49.5627 15.528 49.392 15.672C49.2267 15.8107 49.032 15.9173 48.808 15.992C48.584 16.0613 48.3173 16.096 48.008 16.096ZM53.4774 16.096C53.0934 16.096 52.752 16.008 52.4534 15.832C52.1547 15.656 51.92 15.4107 51.7494 15.096C51.584 14.7813 51.5014 14.416 51.5014 14C51.5014 13.5733 51.584 13.2027 51.7494 12.888C51.92 12.568 52.1547 12.32 52.4534 12.144C52.752 11.9627 53.0987 11.872 53.4934 11.872C53.888 11.872 54.2267 11.96 54.5094 12.136C54.792 12.312 55.0107 12.5467 55.1654 12.84C55.32 13.128 55.3974 13.448 55.3974 13.8C55.3974 13.8533 55.3947 13.912 55.3894 13.976C55.3894 14.0347 55.3867 14.1013 55.3814 14.176H52.0854V13.608H54.5974C54.5814 13.272 54.4694 13.0107 54.2614 12.824C54.0534 12.632 53.7947 12.536 53.4854 12.536C53.2667 12.536 53.0667 12.5867 52.8854 12.688C52.704 12.784 52.5574 12.928 52.4454 13.12C52.3387 13.3067 52.2854 13.544 52.2854 13.832V14.056C52.2854 14.3547 52.3387 14.608 52.4454 14.816C52.5574 15.0187 52.704 15.1733 52.8854 15.28C53.0667 15.3813 53.264 15.432 53.4774 15.432C53.7334 15.432 53.944 15.376 54.1094 15.264C54.2747 15.152 54.3974 15 54.4774 14.808H55.2774C55.208 15.0533 55.0907 15.2747 54.9254 15.472C54.76 15.664 54.5547 15.816 54.3094 15.928C54.0694 16.04 53.792 16.096 53.4774 16.096ZM57.8328 16C57.5821 16 57.3635 15.96 57.1768 15.88C56.9901 15.8 56.8461 15.6667 56.7448 15.48C56.6435 15.2933 56.5928 15.04 56.5928 14.72V12.648H55.8968V11.968H56.5928L56.6888 10.96H57.3928V11.968H58.5368V12.648H57.3928V14.728C57.3928 14.9573 57.4408 15.1147 57.5368 15.2C57.6328 15.28 57.7981 15.32 58.0328 15.32H58.4968V16H57.8328ZM61.5219 16V11.968H62.3219V16H61.5219ZM61.9299 11.208C61.7752 11.208 61.6472 11.16 61.5459 11.064C61.4499 10.968 61.4019 10.8453 61.4019 10.696C61.4019 10.552 61.4499 10.4347 61.5459 10.344C61.6472 10.248 61.7752 10.2 61.9299 10.2C62.0792 10.2 62.2045 10.248 62.3059 10.344C62.4072 10.4347 62.4579 10.552 62.4579 10.696C62.4579 10.8453 62.4072 10.968 62.3059 11.064C62.2045 11.16 62.0792 11.208 61.9299 11.208ZM65.1219 16C64.8712 16 64.6525 15.96 64.4659 15.88C64.2792 15.8 64.1352 15.6667 64.0339 15.48C63.9325 15.2933 63.8819 15.04 63.8819 14.72V12.648H63.1859V11.968H63.8819L63.9779 10.96H64.6819V11.968H65.8259V12.648H64.6819V14.728C64.6819 14.9573 64.7299 15.1147 64.8259 15.2C64.9219 15.28 65.0872 15.32 65.3219 15.32H65.7859V16H65.1219ZM70.5949 16.096C70.2163 16.096 69.8749 16.008 69.5709 15.832C69.2723 15.656 69.0349 15.4107 68.8589 15.096C68.6883 14.776 68.6029 14.408 68.6029 13.992C68.6029 13.5653 68.6909 13.1947 68.8669 12.88C69.0429 12.56 69.2829 12.312 69.5869 12.136C69.8909 11.96 70.2323 11.872 70.6109 11.872C70.9949 11.872 71.3363 11.96 71.6349 12.136C71.9336 12.312 72.1683 12.5573 72.3389 12.872C72.5149 13.1867 72.6029 13.5573 72.6029 13.984C72.6029 14.4107 72.5149 14.7813 72.3389 15.096C72.1683 15.4107 71.9309 15.656 71.6269 15.832C71.3229 16.008 70.9789 16.096 70.5949 16.096ZM70.5949 15.408C70.8136 15.408 71.0109 15.3547 71.1869 15.248C71.3683 15.1413 71.5123 14.984 71.6189 14.776C71.7309 14.5627 71.7869 14.2987 71.7869 13.984C71.7869 13.6693 71.7336 13.408 71.6269 13.2C71.5203 12.9867 71.3763 12.8267 71.1949 12.72C71.0189 12.6133 70.8243 12.56 70.6109 12.56C70.3976 12.56 70.2003 12.6133 70.0189 12.72C69.8376 12.8267 69.6909 12.9867 69.5789 13.2C69.4723 13.408 69.4189 13.6693 69.4189 13.984C69.4189 14.2987 69.4723 14.5627 69.5789 14.776C69.6909 14.984 69.8349 15.1413 70.0109 15.248C70.1923 15.3547 70.3869 15.408 70.5949 15.408ZM73.544 16V11.968H74.264L74.312 12.656C74.44 12.416 74.6213 12.2267 74.856 12.088C75.0907 11.944 75.36 11.872 75.664 11.872C75.984 11.872 76.2587 11.936 76.488 12.064C76.7173 12.192 76.896 12.3867 77.024 12.648C77.152 12.904 77.216 13.2267 77.216 13.616V16H76.416V13.696C76.416 13.3227 76.3333 13.04 76.168 12.848C76.0027 12.656 75.7627 12.56 75.448 12.56C75.24 12.56 75.0533 12.6107 74.888 12.712C74.7227 12.808 74.5893 12.952 74.488 13.144C74.392 13.336 74.344 13.5707 74.344 13.848V16H73.544Z" fill="#212121"/>
<path opacity="0.5" fill-rule="evenodd" clip-rule="evenodd" d="M15.0078 10.6187C14.7796 10.896 14.6484 11.3228 14.6484 11.8774V31.6058C14.6484 32.1604 14.7796 32.5873 15.0163 32.8549L15.0781 32.914L24.8538 21.8598V21.6114L15.0696 10.5596L15.0078 10.6187Z" fill="#303792"/>
<path fill-rule="evenodd" clip-rule="evenodd" d="M28.1044 25.5595L24.8438 21.8712V21.6132L28.1055 17.9248L28.1759 17.9742L32.0337 20.4532C33.1384 21.1574 33.1384 22.3173 32.0337 23.0311L28.1759 25.5101C28.1748 25.5101 28.1044 25.5595 28.1044 25.5595Z" fill="#303792"/>
<path opacity="0.7" fill-rule="evenodd" clip-rule="evenodd" d="M28.1764 25.5091L24.8453 21.7412L15.0078 32.8654C15.3671 33.3018 15.9717 33.3513 16.6478 32.9244L28.1764 25.5091Z" fill="#303792"/>
<path opacity="0.9" fill-rule="evenodd" clip-rule="evenodd" d="M28.1764 17.9745L16.6478 10.5688C15.9728 10.1324 15.3671 10.1914 15.0078 10.6279L24.8443 21.7413L28.1764 17.9745Z" fill="#303792"/>
<path opacity="0.2" fill-rule="evenodd" clip-rule="evenodd" d="M28.1053 25.4297L16.6556 32.7859C16.0158 33.2019 15.4453 33.173 15.0775 32.7956L15.0156 32.8655L15.0775 32.9246C15.4453 33.3008 16.0158 33.3309 16.6556 32.9149L28.1842 25.5093L28.1053 25.4297Z" fill="#303792"/>
<path opacity="0.12" fill-rule="evenodd" clip-rule="evenodd" d="M32.0344 22.9011L28.0977 25.4295L28.168 25.5091L32.0258 23.0301C32.5782 22.6732 32.8501 22.2078 32.8501 21.7412C32.8149 22.168 32.5344 22.5744 32.0344 22.9011Z" fill="#303792"/>
<path opacity="0.25" fill-rule="evenodd" clip-rule="evenodd" d="M16.6477 10.6982L32.0341 20.5828C32.5342 20.8999 32.8147 21.3159 32.8584 21.7428C32.8584 21.2773 32.5865 20.8107 32.0341 20.4538L16.6477 10.5691C15.543 9.85534 14.6484 10.4498 14.6484 11.8774V12.0064C14.6484 10.5788 15.543 9.994 16.6477 10.6982Z" fill="#303792"/>
</svg>
