<svg width="540" height="518" viewBox="0 0 540 518" fill="none" xmlns="http://www.w3.org/2000/svg">
<path d="M403.66 372.523C403.66 372.523 369.141 499.272 360.815 517.987H226.924C250.03 457.526 274.488 378.411 275.185 372.909C275.185 372.657 275.185 372.523 275.185 372.523H403.66Z" fill="#37474F"/>
<path d="M384.902 389.381C384.056 399.673 346.599 509.13 343.453 517.983H341.523C341.523 517.983 382.201 396.885 384.383 389.381C384.442 389.07 384.902 389.07 384.902 389.381Z" fill="#263238"/>
<path d="M293.78 372.507L311.07 486.309L311.678 490.165L313.162 500.457L313.281 501.184L313.697 503.927L315.819 517.941H360.815C369.126 499.226 403.66 372.463 403.66 372.463L293.78 372.507Z" fill="#263238"/>
<path d="M470.8 517.985H344.106C344.106 517.451 344.017 517.021 344.002 516.665C343.987 516.309 343.928 515.805 343.928 515.805L341.805 514.663C334.385 510.6 327.811 507.441 322.424 505.039C321.504 504.638 320.628 504.253 319.767 503.853C317.333 502.8 315.152 501.91 313.341 501.198C308.666 499.359 306.084 498.529 306.084 498.529C305.921 498.143 305.787 497.772 305.654 497.387C287.296 450.689 276.225 379.536 275.186 372.908C275.186 372.552 275.186 372.403 275.186 372.403H456.137C466.882 406.066 488.475 467.965 470.8 517.985Z" fill="#37474F"/>
<path d="M299.611 495.192C314.956 500.471 329.767 507.96 343.925 515.82C344.025 515.887 344.097 515.987 344.13 516.102C344.162 516.217 344.152 516.34 344.102 516.449C344.052 516.558 343.965 516.645 343.857 516.696C343.748 516.746 343.625 516.756 343.51 516.725C328.58 510.318 313.368 504.194 298.81 496.972C298.594 496.853 298.43 496.658 298.352 496.424C298.274 496.191 298.287 495.936 298.388 495.712C298.489 495.487 298.671 495.309 298.898 495.213C299.124 495.116 299.379 495.109 299.611 495.192Z" fill="#263238"/>
<path d="M294.866 392.825C294.866 392.306 295.816 392.187 295.816 392.751C295.697 410.457 296.825 426.043 298.309 442.593C299.007 450.275 305.195 492.747 318.537 489.647C320.763 489.128 321.906 486.934 322.247 483.582C322.677 479.534 321.149 474.566 320.481 470.547C318.997 461.649 317.81 452.751 317.053 443.765C315.501 427.043 315.68 410.207 317.587 393.522C317.587 393.408 317.632 393.299 317.713 393.218C317.794 393.137 317.903 393.092 318.017 393.092C318.131 393.092 318.241 393.137 318.322 393.218C318.402 393.299 318.448 393.408 318.448 393.522C318.448 416.73 319.041 439.894 322.514 462.88C324.176 473.928 329.741 490.552 318.181 492.257C306.62 493.963 298.828 466.172 297.344 458.55C293.352 437.299 293.189 414.417 294.866 392.825Z" fill="#263238"/>
<path d="M318.119 490.787C319.292 493.658 320.283 496.6 321.087 499.595C321.947 501.91 322.37 504.364 322.334 506.832C322.311 506.928 322.261 507.016 322.191 507.084C322.12 507.153 322.031 507.2 321.935 507.221C321.838 507.241 321.738 507.233 321.646 507.199C321.554 507.164 321.473 507.104 321.414 507.025C319.841 505.053 319.188 502.339 318.312 499.981C317.288 497.267 316.219 494.568 315.344 491.81C315.244 491.451 315.283 491.068 315.453 490.737C315.622 490.406 315.91 490.15 316.26 490.021C316.609 489.893 316.995 489.9 317.339 490.041C317.683 490.183 317.962 490.449 318.119 490.787Z" fill="#263238"/>
<path d="M378.519 406.718C378.482 404.863 378.672 403.011 379.083 401.201C379.102 401.145 379.138 401.097 379.186 401.063C379.234 401.028 379.291 401.01 379.35 401.01C379.409 401.01 379.467 401.028 379.514 401.063C379.562 401.097 379.598 401.145 379.617 401.201C379.996 402.761 380.205 404.357 380.241 405.962C380.433 407.786 380.671 409.61 380.864 411.449C381.256 415.187 381.911 418.894 382.823 422.541C384.509 429.44 388.026 435.757 393.003 440.826C397.948 445.688 403.796 449.537 410.218 452.156C417.386 455.122 424.925 456.308 432.316 458.488C432.379 458.509 432.433 458.552 432.467 458.61C432.502 458.667 432.515 458.734 432.504 458.8C432.493 458.866 432.46 458.926 432.409 458.969C432.358 459.012 432.294 459.036 432.227 459.037C424.024 459.016 415.901 457.415 408.304 454.321C401.582 451.804 395.464 447.904 390.347 442.872C385.202 437.677 381.579 431.175 379.869 424.069C379.012 420.419 378.515 416.693 378.385 412.946C378.304 410.869 378.349 408.789 378.519 406.718Z" fill="#263238"/>
<path d="M453.036 517.985C456.805 507.025 459.15 495.627 460.011 484.07C460.99 472.511 461.05 460.892 460.189 449.324C459.595 443.57 459.15 437.786 458.171 432.077C457.696 429.215 457.354 426.338 456.687 423.506L454.906 415.008C454.594 413.525 454.327 412.176 453.986 410.767L452.858 406.57L450.587 398.206C449.786 395.433 448.777 392.719 447.886 389.976C446.996 387.232 446.031 384.504 445.066 381.79C446.343 387.425 447.916 392.957 449.177 398.577L451.047 407L451.952 411.212C452.249 412.621 452.457 414.03 452.709 415.453L454.193 423.936C454.713 426.753 454.98 429.615 455.381 432.448C456.271 438.113 456.687 443.837 457.236 449.546C458.091 460.974 458.25 472.444 457.711 483.892C457.547 486.754 457.414 489.616 457.102 492.463L456.716 496.749L456.182 501.02C455.499 506.736 454.448 512.403 453.036 517.985Z" fill="#263238"/>
<path d="M339.311 201.11C315.032 240.957 266.964 303.731 243.768 317.7C217.99 333.227 144.336 280.522 96.6383 248.965C87.17 242.692 131.336 166.187 141.16 173.334C166.671 192.183 219.429 235.96 226.434 234.477C232.162 233.261 280.869 199.36 308.161 179.934C351.525 149.058 356.408 173.067 339.311 201.11Z" fill="#FFC4C0"/>
<path d="M159.791 184.558L118.831 272.482C118.831 272.482 208.008 330.748 235.745 323.659C263.482 316.571 322.429 234.978 339.718 202.946C357.007 170.915 348.964 152.926 315.454 174.414C281.944 195.902 230.358 230.263 224.926 230.44C219.495 230.618 159.791 184.558 159.791 184.558Z" fill="#303792"/>
<path d="M144.084 282.981C155.793 245.418 173.765 207.707 176.496 200.915C176.614 200.603 177.119 200.841 176.985 201.152C174.017 207.677 158.093 253.055 144.618 283.248C144.485 283.589 143.965 283.337 144.084 282.981Z" fill="#263238"/>
<path opacity="0.1" d="M208.882 319.995C219.597 323.613 229.139 325.319 235.743 323.628C263.48 316.54 322.442 234.977 339.731 202.96C347.151 189.257 349.882 178.135 347.982 171.536C314.754 207.216 237.005 290.069 208.882 319.995Z" fill="black"/>
<path d="M123.148 266.658L159.492 187.527C158.216 185.881 152.755 182.618 147.367 177.547C147.367 177.547 133.239 158.12 127.54 137.047C122.732 119.341 117.612 92.5585 107.981 94.7384C93.9413 97.9565 96.3455 132.658 98.9278 152.574C88.8362 148.51 79.7537 145.96 73.9362 146.405C54.6435 147.888 50.1913 235.13 66.5159 246.252C82.2766 256.826 112.448 268.2 123.148 266.658Z" fill="#FFC4C0"/>
<path d="M70.7274 274.84L198.965 265.275L186.35 96.4258L58.1129 106.006L70.7274 274.84Z" fill="#455A64"/>
<path d="M71.0826 115.912L175.004 108.158L186.001 255.332L82.0793 263.086L71.0826 115.912Z" fill="white"/>
<path d="M136.067 111.063L175.004 108.158L186.001 255.332L147.063 258.237L136.067 111.063Z" fill="#EBEBEB"/>
<path d="M151.685 139.861C153.147 140.634 154.773 141.048 156.427 141.066C158.081 141.085 159.715 140.709 161.195 139.969C162.674 139.23 163.955 138.147 164.931 136.813C165.908 135.479 166.551 133.931 166.808 132.298C167.104 130.414 166.875 128.485 166.146 126.722C165.418 124.96 164.217 123.432 162.676 122.307C161.136 121.181 159.315 120.501 157.413 120.342C155.511 120.183 153.602 120.55 151.896 121.403C150.189 122.257 148.751 123.564 147.738 125.18C146.726 126.797 146.179 128.661 146.157 130.568C146.136 132.475 146.64 134.351 147.615 135.99C148.59 137.63 149.998 138.969 151.685 139.861Z" fill="#A6A6A6"/>
<path d="M153.243 129.687C153.286 130.317 153.514 130.919 153.899 131.419C154.284 131.918 154.809 132.292 155.407 132.494C156.005 132.695 156.649 132.715 157.259 132.551C157.868 132.386 158.415 132.045 158.83 131.57C159.245 131.095 159.51 130.508 159.591 129.882C159.672 129.257 159.566 128.621 159.285 128.056C159.005 127.491 158.563 127.022 158.016 126.708C157.469 126.394 156.841 126.249 156.211 126.291C155.367 126.349 154.58 126.738 154.023 127.375C153.467 128.012 153.186 128.844 153.243 129.687Z" fill="white"/>
<path d="M151.596 138.586L151.685 139.905C153.412 140.793 155.35 141.185 157.286 141.039C159.222 140.892 161.08 140.212 162.652 139.075L162.548 137.77C162.495 137.051 162.3 136.35 161.975 135.707C161.651 135.063 161.202 134.49 160.656 134.02C160.11 133.55 159.476 133.192 158.791 132.966C158.106 132.741 157.383 132.652 156.664 132.706C155.945 132.759 155.244 132.954 154.6 133.278C153.956 133.603 153.382 134.051 152.911 134.597C152.441 135.143 152.082 135.776 151.857 136.46C151.631 137.145 151.543 137.867 151.596 138.586Z" fill="white"/>
<path d="M102.08 126.112L130.125 124.02L130.27 125.957L102.225 128.049L102.08 126.112Z" fill="#EBEBEB"/>
<path d="M82.0515 132.981L130.52 129.365L130.664 131.303L82.1963 134.919L82.0515 132.981Z" fill="#EBEBEB"/>
<path d="M93.2535 137.53L130.918 134.72L131.063 136.657L93.3983 139.467L93.2535 137.53Z" fill="#EBEBEB"/>
<path d="M109.975 147.066L131.715 145.444L131.86 147.382L110.119 149.004L109.975 147.066Z" fill="#EBEBEB"/>
<path d="M94.4488 153.608L132.113 150.798L132.258 152.735L94.5936 155.545L94.4488 153.608Z" fill="#EBEBEB"/>
<path d="M84.0437 159.764L132.512 156.147L132.656 158.085L84.1885 161.701L84.0437 159.764Z" fill="#EBEBEB"/>
<path d="M104.885 163.598L132.93 161.506L133.074 163.443L105.03 165.536L104.885 163.598Z" fill="#EBEBEB"/>
<path d="M82.2487 174.169L130.852 170.77L130.988 172.712L82.3847 176.112L82.2487 174.169Z" fill="#EBEBEB"/>
<path d="M98.946 180.203L134.109 177.579L134.254 179.516L99.0908 182.14L98.946 180.203Z" fill="#EBEBEB"/>
<path d="M108.406 184.881L134.512 182.934L134.656 184.871L108.55 186.819L108.406 184.881Z" fill="#EBEBEB"/>
<path d="M91.2598 191.539L134.918 188.282L135.063 190.22L91.4045 193.477L91.2598 191.539Z" fill="#EBEBEB"/>
<path d="M100.552 201.615L135.715 198.991L135.86 200.928L100.696 203.552L100.552 201.615Z" fill="#EBEBEB"/>
<path d="M87.6414 207.976L136.109 204.36L136.254 206.298L87.7861 209.914L87.6414 207.976Z" fill="#EBEBEB"/>
<path d="M93.2598 218.323L136.918 215.065L137.063 217.003L93.4045 220.26L93.2598 218.323Z" fill="#EBEBEB"/>
<path d="M111.458 222.365L137.312 220.436L137.457 222.373L111.603 224.302L111.458 222.365Z" fill="#EBEBEB"/>
<path d="M86.0299 227.898L134.633 224.498L134.769 226.441L86.166 229.84L86.0299 227.898Z" fill="#EBEBEB"/>
<path d="M103.356 239.13L138.52 236.507L138.664 238.444L103.501 241.068L103.356 239.13Z" fill="#EBEBEB"/>
<path d="M87.1705 244.007L135.773 240.607L135.91 242.55L87.3066 245.95L87.1705 244.007Z" fill="#EBEBEB"/>
<path d="M92.3726 249.053L136.152 245.99L136.288 247.933L92.5087 250.995L92.3726 249.053Z" fill="#EBEBEB"/>
<path d="M152.725 147.621L165.637 146.718L165.773 148.66L152.861 149.564L152.725 147.621Z" fill="#A6A6A6"/>
<path d="M147.254 155.053L168.684 153.454L168.828 155.391L147.399 156.99L147.254 155.053Z" fill="#A6A6A6"/>
<path d="M151.183 160.146L169.09 158.81L169.235 160.747L151.327 162.083L151.183 160.146Z" fill="#A6A6A6"/>
<path d="M148.453 171.129L169.883 169.53L170.028 171.468L148.598 173.066L148.453 171.129Z" fill="#A6A6A6"/>
<path d="M147.52 176.566L170.281 174.868L170.426 176.805L147.665 178.504L147.52 176.566Z" fill="#A6A6A6"/>
<path d="M154.719 181.429L170.688 180.237L170.832 182.175L154.864 183.366L154.719 181.429Z" fill="#A6A6A6"/>
<path d="M149.371 185.66L168.293 184.337L168.429 186.28L149.507 187.603L149.371 185.66Z" fill="#A6A6A6"/>
<path d="M88.9933 93.8309L153.992 88.9814L155.712 111.992L90.7127 116.842L88.9933 93.8309Z" fill="#A6A6A6"/>
<path d="M99.0419 102.078L145.285 98.6224L143.95 80.7676L97.7062 84.208L99.0419 102.078Z" fill="#A6A6A6"/>
<path d="M104.207 149.915C108.407 159.095 95.1837 158.813 95.1837 158.813C95.1837 158.813 114.105 163.796 114.803 174.933C115.411 185.669 99.4578 184.735 98.3151 184.676C99.3094 184.957 116.584 190.029 116.124 201.27C115.619 212.97 99.7991 209.293 98.7454 209.041C99.6062 209.604 110.87 217.123 108.57 225.59C104.593 240.138 75.2379 221.675 63.4545 224.893C63.4545 224.893 66.6007 245.477 66.5711 246.085C66.5711 246.085 38.2998 229.09 34.8567 212.97C34.3242 210.633 34.6044 208.185 35.6511 206.028C36.6978 203.872 38.4486 202.136 40.6149 201.107C40.6149 201.107 30.8943 196.658 30.9833 187.76C31.0575 183.208 38.4036 179.248 38.4036 179.248C38.4036 179.248 30.7607 175.348 31.3395 167.459C31.7847 161.171 39.0863 158.175 39.0863 158.175C39.0863 158.175 33.4914 151.027 36.0292 144.755C41.0898 132.06 95.1985 130.296 104.207 149.915Z" fill="#FFC4C0"/>
<path d="M40.1132 157.54C40.0835 157.53 40.0576 157.511 40.0393 157.486C40.021 157.46 40.0111 157.43 40.0111 157.399C40.0111 157.368 40.021 157.337 40.0393 157.312C40.0576 157.286 40.0835 157.268 40.1132 157.258C57.7735 152.334 78.6987 152.334 95.9583 158.741C96.5371 158.948 96.4332 159.972 95.7654 159.853C76.6211 156.65 59.4357 155.345 40.1132 157.54Z" fill="#263238"/>
<path d="M38.0781 179.145C37.8703 179.145 37.8258 178.834 38.0781 178.774C56.2875 173.792 79.8395 174.444 98.9245 184.158C99.5775 184.499 99.8298 185.448 99.0581 185.122C85.8351 179.62 55.4416 177.143 38.0781 179.145Z" fill="#263238"/>
<path d="M99.8021 210.181C81.1624 201.565 61.6322 199.8 41.3154 200.839C41.0483 200.839 41.0631 200.483 41.3154 200.408C51.125 197.19 64.1402 197.858 74.2318 199.252C83.6201 200.353 92.5548 203.897 100.143 209.529C100.396 209.766 100.188 210.359 99.8021 210.181Z" fill="#263238"/>
<path d="M275.249 372.524L280.487 315.282C280.487 315.282 265.187 291.911 267.428 264.298C269.045 244.189 326.493 173.838 330.189 170.456C345.029 156.621 370.095 162.137 380.379 169.908C437.338 212.914 436.848 281.678 456.066 372.405L275.249 372.524Z" fill="#303792"/>
<path d="M275.249 372.523L280.487 315.281C280.487 315.281 260.779 289.032 267.428 264.297C274.076 239.561 293.666 216.99 293.666 216.99H378.376C378.376 216.99 386.049 291.049 405.445 303.654C417.222 311.501 431.593 314.458 445.515 311.899L456.141 372.404L275.249 372.523Z" fill="#37474F"/>
<path d="M334.534 307.792C326.329 307.312 318.1 307.441 309.914 308.177C305.847 308.592 301.841 309.2 297.819 309.883C295.8 310.239 293.797 310.505 291.793 310.772C289.689 311.115 287.551 311.2 285.427 311.024C285.387 311.024 285.35 311.04 285.322 311.068C285.294 311.096 285.278 311.133 285.278 311.173C285.278 311.212 285.294 311.25 285.322 311.278C285.35 311.305 285.387 311.321 285.427 311.321C289.326 312.165 293.339 312.35 297.299 311.87C301.425 311.484 305.521 310.906 309.647 310.476C317.957 309.601 326.268 308.741 334.623 308.474C334.92 308.459 334.92 307.821 334.534 307.792Z" fill="#263238"/>
<path d="M353.467 317.933C346.904 316.243 340.249 314.926 333.536 313.989C330.168 313.529 326.814 313.262 323.415 313.084C321.812 313.01 320.18 312.951 318.562 312.921C316.945 312.891 315 313.084 313.22 313.025C313.027 313.025 312.997 313.307 313.22 313.307C314.897 313.425 316.574 313.811 318.236 314.018L323.267 314.626C326.621 315.042 329.96 315.501 333.329 315.887C340.051 316.658 346.685 317.489 353.438 318.482C353.734 318.541 353.734 318.022 353.467 317.933Z" fill="#263238"/>
<path d="M368.268 194.242C378.746 209.146 458.054 303.329 480.448 317.565C497.47 328.405 542.215 335.019 539.915 292.814C538.43 264.638 425.642 185.152 380.141 165.888C359.23 156.976 346.319 162.982 368.268 194.242Z" fill="#303792"/>
<path d="M521.957 324.119C515.276 325.929 508.277 326.238 501.462 325.024C494.691 323.919 488.191 321.544 482.303 318.024C479.371 316.255 476.573 314.272 473.933 312.092C471.291 309.927 468.768 307.569 466.275 305.197C461.304 300.407 456.495 295.424 451.761 290.367C442.204 280.372 432.973 270.021 423.727 259.714L396.094 228.572C400.324 234.059 404.716 239.413 409.08 244.885C413.443 250.357 417.984 255.547 422.436 260.841C431.429 271.38 440.685 281.721 450.203 291.865C455.011 296.892 459.879 301.845 464.94 306.62C467.477 308.993 470.045 311.351 472.775 313.56C475.508 315.792 478.433 317.777 481.516 319.492C487.651 322.954 494.391 325.214 501.373 326.151C504.82 326.573 508.301 326.638 511.762 326.344C515.247 326.077 518.678 325.328 521.957 324.119Z" fill="#263238"/>
<path d="M406.707 241.221C404.888 239.736 402.991 238.35 401.023 237.069L395.191 233.169C396.62 235.078 398.385 236.711 400.4 237.989C402.356 239.33 404.475 240.417 406.707 241.221Z" fill="#263238"/>
<path d="M378.372 216.989H365.431C364.917 198.387 367.567 179.834 373.267 162.119L381.637 164.24C381.637 164.24 373.4 198.526 378.372 216.989Z" fill="#37474F"/>
<path d="M325.808 167.253C325.808 167.253 308.356 192.374 293.663 216.991H301.885L334.816 163.798L325.808 167.253Z" fill="#37474F"/>
<path d="M368.58 171.804C367.556 175.393 351.187 196.495 334.566 194.909C329.149 194.39 328.525 166.451 328.525 166.451L328.14 164.226L322.752 133.218L359.928 111.893L365.286 109.075C365.286 109.075 366.191 117.662 367.23 128.354C367.23 128.843 367.319 129.347 367.363 129.837C367.408 130.326 367.526 131.008 367.571 131.572C367.734 133.158 367.912 134.79 368.046 136.421C368.15 137.667 368.268 138.868 368.328 140.173C368.387 141.478 368.506 142.738 368.61 144.058C369.322 156.96 368.981 170.262 368.58 171.804Z" fill="#FFC4C0"/>
<path d="M367.23 128.309C363.712 136.773 358.391 144.37 351.638 150.573C344.885 156.775 336.862 161.434 328.126 164.226L322.738 133.218L359.929 111.893L365.286 109.075C365.286 109.075 366.192 117.617 367.23 128.309Z" fill="#263238"/>
<path d="M356.011 106.079C365.91 99.4503 393.721 89.6925 408.414 111.284C429.398 142.085 383.956 196.109 381.626 224.508C377.397 275.952 350.654 304.84 326.924 290.47C300.315 274.365 301.977 230.529 351.901 181.102C383.066 150.182 387.874 127.597 380.691 122.406C373.508 117.216 362.334 121.798 362.334 121.798L356.011 106.079Z" fill="#263238"/>
<path d="M359.942 103.796C365.034 101.176 370.426 99.1844 375.999 97.8642C381.671 96.4554 387.574 96.2433 393.333 97.2414C399.241 98.3082 404.663 101.209 408.826 105.531C412.978 109.818 416.032 115.043 417.731 120.761C419.249 126.479 419.528 132.455 418.547 138.29C417.563 143.993 415.93 149.566 413.679 154.899C409.106 165.395 403.366 175.343 396.568 184.558C402.268 174.773 407.229 164.577 411.409 154.053C413.338 148.821 414.725 143.404 415.549 137.889C416.39 132.478 416.081 126.95 414.644 121.666C413.142 116.427 410.41 111.622 406.675 107.652C402.992 103.662 398.176 100.894 392.873 99.7179C387.438 98.5485 381.827 98.4528 376.355 99.4362C373.567 99.8497 370.806 100.434 368.089 101.186C365.339 101.947 362.623 102.817 359.942 103.796Z" fill="#263238"/>
<path d="M368.68 163.649C364.079 168.899 358.915 173.615 353.943 178.479C348.971 183.343 343.911 188.118 339.102 193.071C334.294 198.024 329.545 203.126 325.256 208.509C320.884 213.803 317.047 219.515 313.799 225.563C310.509 231.496 308.37 237.996 307.492 244.723C306.875 251.493 307.448 258.318 309.184 264.891C310.886 271.507 314.125 277.629 318.637 282.76C320.904 285.345 323.498 287.623 326.354 289.538C327.778 290.489 329.266 291.341 330.807 292.088C332.347 292.895 333.997 293.475 335.704 293.809C332.215 293.309 328.865 292.097 325.865 290.249C322.791 288.491 319.962 286.337 317.45 283.843C314.944 281.306 312.766 278.467 310.965 275.39C309.18 272.295 307.756 269.007 306.72 265.588C305.684 262.204 304.979 258.727 304.613 255.207L304.375 252.538L304.272 249.883C304.195 248.083 304.245 246.279 304.42 244.485C305.256 237.351 307.458 230.443 310.905 224.139C317.658 211.579 327.23 201.035 337.292 191.366C342.338 186.517 347.591 181.919 352.889 177.396C358.187 172.873 363.56 168.38 368.68 163.649Z" fill="#263238"/>
<path d="M354.378 104.76C356.352 102.15 360.834 100.311 362.852 101.23C364.871 102.15 372.84 117.217 371.356 121.191C369.872 125.165 362.214 123.549 362.214 123.549L354.378 104.76Z" fill="#303792"/>
<path d="M282.115 78.4978C270.465 132.492 301.497 145.557 313.161 148.063C323.743 150.317 360.043 156.709 377.213 104.212C394.384 51.7156 372.954 29.234 349.016 22.7683C325.078 16.3026 293.765 24.5034 282.115 78.4978Z" fill="#FFC4C0"/>
<path d="M299.807 70.5345C301.077 70.5175 302.345 70.4333 303.606 70.2824C304.963 70.3888 306.316 70.0391 307.45 69.2888C307.76 68.9857 307.961 68.5891 308.023 68.1602C308.085 67.7314 308.003 67.2941 307.791 66.9161C307.254 66.2338 306.545 65.7067 305.736 65.3888C304.928 65.0709 304.049 64.9736 303.191 65.1069C301.412 65.1132 299.698 65.779 298.383 66.9754C298.096 67.265 297.901 67.6317 297.82 68.0306C297.74 68.4295 297.777 68.8432 297.929 69.2211C298.08 69.5989 298.338 69.9245 298.672 70.1578C299.006 70.3911 299.4 70.522 299.807 70.5345Z" fill="#263238"/>
<path d="M337.684 84.5593C336.463 84.1907 335.264 83.755 334.092 83.2542C332.767 82.9673 331.573 82.2535 330.694 81.2226C330.479 80.8452 330.397 80.4074 330.458 79.9779C330.52 79.5484 330.723 79.1516 331.035 78.8499C331.739 78.3438 332.566 78.0355 333.43 77.9573C334.294 77.8791 335.163 78.0336 335.947 78.405C337.66 78.9001 339.123 80.0228 340.043 81.5488C340.234 81.9062 340.316 82.3113 340.281 82.7147C340.246 83.1181 340.094 83.5026 339.844 83.8214C339.594 84.1402 339.257 84.3797 338.873 84.5106C338.49 84.6416 338.077 84.6585 337.684 84.5593Z" fill="#263238"/>
<path d="M328.406 91.295C328.406 91.1615 328.673 91.5175 328.643 91.6658C327.901 95.3583 327.679 99.7182 330.825 101.498C330.929 101.498 330.825 101.75 330.825 101.705C326.759 100.445 327.115 94.6762 328.406 91.295Z" fill="#263238"/>
<path d="M332.368 87.972C338.408 88.5207 336.82 100.562 331.269 100.058C325.719 99.5539 327.307 87.5271 332.368 87.972Z" fill="#263238"/>
<path d="M334.652 88.9216C335.617 89.7373 336.492 91.0719 337.754 91.3537C339.015 91.6354 340.47 90.5677 341.583 89.4703C341.702 89.3665 341.791 89.4703 341.776 89.6335C341.509 91.9469 340.292 94.201 337.798 94.2306C335.498 94.2306 334.148 92.0062 333.866 89.6186C333.806 89.1737 334.266 88.5805 334.652 88.9216Z" fill="#263238"/>
<path d="M306.041 86.4895C306.041 86.3412 305.729 86.6378 305.729 86.801C305.596 90.5528 304.794 94.8386 301.277 95.847C301.173 95.847 301.173 96.0694 301.277 96.0546C305.506 95.758 306.516 90.0635 306.041 86.4895Z" fill="#263238"/>
<path d="M302.955 82.3363C296.945 81.4614 295.639 93.5327 301.204 94.3335C306.769 95.1343 308.001 83.063 302.955 82.3363Z" fill="#263238"/>
<path d="M300.518 82.7093C299.39 83.2877 298.218 84.3702 296.942 84.3702C295.665 84.3702 294.478 82.9614 293.647 81.6416C293.558 81.5081 293.439 81.6416 293.424 81.7602C293.142 84.0736 293.766 86.5354 296.214 87.1582C298.441 87.7217 300.296 85.8384 301.127 83.5843C301.275 83.169 300.963 82.4869 300.518 82.7093Z" fill="#263238"/>
<path d="M321.55 120.149C320.585 120.95 319.591 122.092 318.21 122.092C316.82 121.948 315.475 121.514 314.263 120.817C314.144 120.817 314.011 120.817 314.085 120.995C314.559 121.778 315.238 122.418 316.048 122.847C316.858 123.275 317.77 123.476 318.685 123.427C319.464 123.287 320.185 122.921 320.757 122.375C321.33 121.829 321.729 121.128 321.906 120.357C321.98 120.134 321.698 120.031 321.55 120.149Z" fill="#263238"/>
<path d="M307.849 104.477C307.849 104.477 306.365 109.934 305.935 112.559C305.935 112.796 306.513 113.004 307.419 113.182C307.419 113.182 307.419 113.182 307.522 113.182C309.72 113.903 312.073 114.007 314.326 113.484C316.579 112.961 318.646 111.831 320.3 110.216C320.355 110.171 320.39 110.105 320.397 110.035C320.404 109.964 320.383 109.893 320.337 109.838C320.292 109.783 320.227 109.748 320.156 109.741C320.085 109.734 320.014 109.755 319.959 109.801C316.285 111.62 312.121 112.208 308.086 111.476C307.997 110.72 311.055 102.223 310.639 102.134C308.573 102.027 306.502 102.197 304.48 102.638C307.374 91.1896 312.079 80.2899 314.78 68.8414C314.869 68.4262 314.29 68.2186 314.127 68.5745C308.383 79.6522 304.762 92.7615 301.482 104.507C301.052 106.034 306.736 104.818 307.849 104.477Z" fill="#263238"/>
<path d="M380.319 102.833C370.925 103.56 368.773 83.8808 368.773 83.8808C368.773 83.8808 349.688 83.8807 343.381 56.5054C343.381 56.5054 343.797 69.2736 351.84 79.1798C351.84 79.1798 318.182 75.6207 304.009 47.4742C304.009 47.4742 309.663 61.8144 314.961 66.9157C314.961 66.9157 300.848 62.9711 293.962 51.5226C293.962 51.5226 288.026 67.8352 283.574 72.284C283.574 72.284 284.954 13.4403 339.508 19.6984C339.508 19.6984 373.641 21.9673 385.929 48.9868C398.217 76.0062 380.319 102.833 380.319 102.833Z" fill="#263238"/>
<path d="M367.747 106.511C367.747 106.511 381.875 90.9101 389.102 96.1301C396.33 101.35 384.19 125.033 374.633 127.272C373.429 127.643 372.162 127.767 370.909 127.636C369.655 127.505 368.442 127.122 367.341 126.509C366.239 125.897 365.274 125.068 364.502 124.072C363.73 123.077 363.168 121.936 362.849 120.718L367.747 106.511Z" fill="#FFC4C0"/>
<path d="M385.451 102.864C385.6 102.864 385.6 103.071 385.451 103.101C378.728 104.88 374.618 110.382 371.486 116.225C373.683 114.104 376.428 113.14 379.322 115.795C379.47 115.943 379.322 116.18 379.099 116.121C378.022 115.621 376.815 115.467 375.646 115.68C374.477 115.892 373.402 116.461 372.57 117.307C371.19 118.741 369.966 120.317 368.919 122.008C368.548 122.542 367.553 122.097 367.865 121.475C367.868 121.425 367.868 121.376 367.865 121.326C368.815 113.17 376.591 102.567 385.451 102.864Z" fill="#263238"/>
<path d="M373.27 127.671C373.27 128.258 373.095 128.831 372.769 129.319C372.443 129.807 371.98 130.187 371.437 130.411C370.895 130.636 370.298 130.694 369.722 130.58C369.147 130.465 368.618 130.183 368.203 129.768C367.788 129.353 367.505 128.825 367.39 128.25C367.276 127.674 367.335 127.078 367.559 126.536C367.784 125.994 368.164 125.531 368.652 125.205C369.141 124.879 369.714 124.705 370.301 124.705C371.089 124.705 371.844 125.018 372.4 125.574C372.957 126.13 373.27 126.884 373.27 127.671Z" fill="white"/>
<path d="M299.064 27.7222C305.49 28.2264 338.436 40.0604 351.273 51.3457C364.11 62.631 383.64 92.7647 384.635 94.3514C385.629 95.9382 410.353 43.3674 369.156 18.8838C324.293 -7.79458 299.064 27.7222 299.064 27.7222Z" fill="#303792"/>
<path d="M382.812 91.2649C382.812 91.2649 366.072 42.9502 352.627 28.788C339.181 14.6257 304.246 -2.35411 278.424 0.270721C258.256 2.28754 293.903 38.9907 293.903 38.9907C293.903 38.9907 297.153 33.0589 303.549 32.703C315.985 31.9318 335.798 42.1049 346.409 49.9942C359.676 59.9894 382.812 91.2649 382.812 91.2649Z" fill="#303792"/>
<path opacity="0.2" d="M382.812 91.2649C382.812 91.2649 366.072 42.9502 352.627 28.788C339.181 14.6257 304.246 -2.35411 278.424 0.270721C258.256 2.28754 293.903 38.9907 293.903 38.9907C293.903 38.9907 297.153 33.0589 303.549 32.703C315.985 31.9318 335.798 42.1049 346.409 49.9942C359.676 59.9894 382.812 91.2649 382.812 91.2649Z" fill="black"/>
<path d="M260.479 274.826H459.402V398.149H260.479V274.826Z" fill="#303792"/>
<path opacity="0.2" d="M260.479 274.827H459.402V398.15H260.479V274.827Z" fill="black"/>
<path opacity="0.2" d="M459.389 398.146H384.059V274.824H459.389V398.146Z" fill="black"/>
<path d="M454.207 389.651C448.627 380.882 443.096 372.083 437.615 363.254L421.291 336.739L405.159 310.046C399.806 301.148 394.508 292.25 389.265 283.353C394.845 292.112 400.37 300.906 405.842 309.734L422.166 336.264L438.298 362.958C443.65 371.796 448.953 380.694 454.207 389.651Z" fill="#303792"/>
<path d="M454.207 283.322C448.953 292.22 443.655 301.118 438.313 310.015L422.181 336.709L405.856 363.224C400.395 372.062 394.869 380.861 389.279 389.621C394.523 380.663 399.821 371.741 405.174 362.853L421.305 336.16L437.63 309.63C443.091 300.861 448.617 292.091 454.207 283.322Z" fill="#303792"/>
<path d="M410.432 274.827H433.316V297.694H410.432V274.827Z" fill="#EBEBEB"/>
<path d="M302.268 365.312H303.871V387.898H302.268V365.312Z" fill="#263238"/>
<path d="M298.425 365.312H300.027V387.898H298.425V365.312Z" fill="#263238"/>
<path d="M294.581 365.312H296.184V387.898H294.581V365.312Z" fill="#263238"/>
<path d="M290.741 365.312H292.344V387.898H290.741V365.312Z" fill="#263238"/>
<path d="M286.893 365.312H288.496V387.898H286.893V365.312Z" fill="#263238"/>
<path d="M283.053 365.312H284.656V387.898H283.053V365.312Z" fill="#263238"/>
<path d="M279.21 365.312H280.812V387.898H279.21V365.312Z" fill="#263238"/>
<path d="M275.366 365.312H276.969V387.898H275.366V365.312Z" fill="#263238"/>
<path d="M271.507 365.312H273.109V387.898H271.507V365.312Z" fill="#263238"/>
<path d="M319.607 386.24L313.448 387.946H327.918L321.744 386.211V377.921C326.196 377.342 327.918 372.983 327.918 365.375H313.448C313.448 372.968 315.2 377.342 319.607 377.921V386.24Z" fill="#263238"/>
<path d="M331.286 376.835H335.071V387.883H344.747V376.835H348.531L339.909 365.312L331.286 376.835Z" fill="#263238"/>
<path opacity="0.1" d="M260.481 398.148V387.337L384.059 367.317V398.133L260.481 398.148Z" fill="black"/>
<path d="M271.508 270.851H439.711V274.825H271.508V270.851Z" fill="#EBEBEB"/>
<path d="M275.871 266.89H444.074V270.864H275.871V266.89Z" fill="#C7C7C7"/>
<path d="M264.539 303.615L386.293 324.507L373.035 401.657L251.281 380.765L264.539 303.615Z" fill="white"/>
<path d="M268.078 303.671C272.189 309.173 276.433 314.496 280.589 319.983C284.744 325.47 289.048 330.676 293.307 335.97C297.759 341.501 302.212 346.988 306.664 352.46L307.064 352.979C311.027 357.799 315.019 362.618 318.937 367.438L319.531 368.12L320.302 367.66C325.645 364.408 330.978 361.145 336.3 357.873L336.864 357.532C342.89 353.824 348.915 350.117 354.925 346.291C360.669 342.702 366.412 339.025 372.14 335.362C377.869 331.699 383.597 327.947 389.281 324.076C383.345 327.205 377.572 330.557 371.725 333.805C365.878 337.052 360.045 340.463 354.228 343.859C347.757 347.616 341.282 351.437 334.801 355.322C329.944 358.209 325.096 361.106 320.258 364.012C316.637 359.697 313.001 355.337 309.35 351.066C304.497 345.312 299.644 339.573 294.732 333.894C290.339 328.812 285.926 323.75 281.494 318.708C277.027 313.577 272.619 308.55 268.078 303.671Z" fill="#DBDBDB"/>
<path d="M334.446 356.981L334.564 357.13C335.114 357.782 335.648 358.435 336.197 359.072C338.809 362.157 341.51 365.138 344.285 368.044C347.654 371.648 351.127 375.133 354.673 378.603C358.22 382.073 361.752 385.41 365.403 388.717C369.054 392.024 372.823 395.286 376.652 398.356C373.521 394.515 370.197 390.867 366.828 387.293C363.459 383.719 359.972 380.219 356.439 376.749C352.907 373.279 349.346 369.913 345.695 366.591C342.727 363.966 339.759 361.341 336.791 358.85C336.078 358.257 335.381 357.693 334.653 357.13L334.446 356.981Z" fill="#DBDBDB"/>
<path d="M255.88 378.113C260.555 376.482 265.141 374.613 269.652 372.671C274.164 370.728 278.66 368.682 283.127 366.606C287.594 364.529 292.032 362.32 296.35 360.006C299.897 358.153 303.429 356.24 306.887 354.178L309.084 352.873C309.14 352.833 309.199 352.799 309.262 352.77H309.054C308.178 353.081 307.318 353.392 306.472 353.719C302.747 355.083 299.051 356.581 295.475 358.168C290.948 360.095 286.481 362.157 282.029 364.262C277.577 366.368 273.125 368.548 268.791 370.847C264.458 373.145 260.095 375.503 255.88 378.113Z" fill="#DBDBDB"/>
<path d="M357.476 326.396L359.98 404.285L237.06 408.231L234.556 330.342L357.476 326.396Z" fill="#EBEBEB"/>
<path d="M234.553 330.334C239.673 334.931 244.867 339.306 250.032 343.814C255.196 348.322 260.42 352.623 265.644 356.982C271.085 361.54 276.527 366.048 281.968 370.507L282.473 370.937L297.017 382.801L297.744 383.364L298.412 382.756C302.993 378.515 307.573 374.264 312.154 370.003C312.323 369.866 312.482 369.718 312.629 369.558C317.823 364.753 322.993 359.899 328.138 354.995C333.05 350.339 337.962 345.608 342.845 340.878C347.727 336.147 352.61 331.342 357.418 326.434C352.283 330.675 347.222 335.109 342.132 339.439C337.042 343.769 331.996 348.263 326.965 352.786C321.37 357.739 315.76 362.781 310.18 367.853L297.64 379.227C293.188 375.712 288.81 372.153 284.402 368.683C278.466 363.997 272.56 359.345 266.683 354.728C261.37 350.606 256.042 346.513 250.699 342.45C245.283 338.342 239.955 334.234 234.553 330.334Z" fill="#C7C7C7"/>
<path d="M310.095 369.542C310.151 369.578 310.201 369.623 310.243 369.675L312.187 371.247C315.363 373.754 318.599 376.141 321.893 378.455C325.9 381.317 329.996 384.045 334.107 386.759C338.218 389.473 342.388 392.053 346.632 394.574C350.877 397.095 355.136 399.557 359.559 401.796C355.73 398.652 351.752 395.731 347.686 392.899C343.62 390.066 339.553 387.293 335.457 384.594C331.361 381.895 327.162 379.27 322.917 376.749C319.548 374.732 316.12 372.76 312.618 370.921C311.816 370.476 311 370.061 310.184 369.646L310.095 369.542Z" fill="#C7C7C7"/>
<path d="M237.271 405.724C241.53 403.203 245.656 400.474 249.707 397.686C253.759 394.898 257.751 391.992 261.713 389.085C265.676 386.179 269.564 383.153 273.378 380.009C276.495 377.488 279.582 374.908 282.55 372.209C283.203 371.646 283.826 371.067 284.464 370.489L284.598 370.355C284.548 370.404 284.486 370.44 284.42 370.459L282.06 371.942C278.691 374.004 275.426 376.198 272.161 378.423C268.095 381.226 264.133 384.117 260.17 387.054C256.208 389.99 252.334 392.985 248.505 396.114C244.676 399.243 240.951 402.343 237.271 405.724Z" fill="#C7C7C7"/>
<path d="M365.344 354.266C382.262 339.244 479.483 284.923 499.176 278.131C518.87 271.339 546.666 280.267 537.762 309.852C528.858 339.436 428.995 426.797 391.3 432.937C378.048 435.176 359.215 359.694 365.344 354.266Z" fill="#FFC4C0"/>
<path d="M336.685 380.547C340.559 377.581 339.015 375.505 330.304 375.431C321.592 375.357 287.103 382.431 285.649 370.196C284.194 357.962 332.96 348.679 347.504 349.909C362.048 351.14 384.902 358.214 384.902 358.214C375.82 361.921 354.509 373.044 336.685 380.547Z" fill="#FFC4C0"/>
<path d="M404.762 428.045C378.642 437.551 346.705 450.987 315.852 445.292C312.43 444.739 309.294 443.052 306.947 440.502C293.071 438.204 289.999 430.967 289.999 430.967C277.726 424.857 275.604 417.027 275.604 417.027C275.604 417.027 259.279 414.15 259.458 404.036C259.547 392.706 282.371 398.965 297.019 394.753C330.603 385.084 375.674 361.965 385.024 358.213L404.762 428.045Z" fill="#FFC4C0"/>
<path d="M339.27 409.329C329.326 411.984 319.636 414.846 309.396 416.121C298.146 417.604 287.135 417.026 275.826 416.774C275.755 416.774 275.687 416.802 275.637 416.852C275.587 416.902 275.559 416.97 275.559 417.041C275.559 417.111 275.587 417.179 275.637 417.229C275.687 417.279 275.755 417.308 275.826 417.308C296.143 420.985 320.437 417.752 339.448 409.774C339.863 409.581 339.774 409.196 339.27 409.329Z" fill="#263238"/>
<path d="M348.055 428.741C338.246 430.773 320.971 434.243 289.969 430.625C289.865 430.625 289.821 430.788 289.969 430.818C309.132 435.695 329.274 435.15 348.144 429.246C348.753 429.023 348.708 428.593 348.055 428.741Z" fill="#263238"/>
<path d="M352.579 439.256C335.765 442.088 324.798 441.747 306.959 440.442C306.855 440.442 306.811 440.605 306.959 440.62C327.068 444.238 334.785 443.26 352.787 439.819C353.381 439.7 353.232 439.137 352.579 439.256Z" fill="#263238"/>
<path d="M360.268 349.817L407.506 442.59C407.506 442.59 490.168 394.587 534.482 318.778C549.248 293.568 534.407 259.638 489.633 277.76C444.859 295.882 360.268 349.817 360.268 349.817Z" fill="#303792"/>
<path d="M379.326 343.054C386.747 356.623 415.374 413.213 420.717 425.862C421.088 426.737 420.628 427.197 420.123 426.322C396.734 386.282 385.456 357.038 378.807 343.365C378.629 343.024 379.133 342.713 379.326 343.054Z" fill="#263238"/>
<path d="M0.00231934 348.081H219.391V517.983H0.00231934V348.081Z" fill="#303792"/>
<path opacity="0.2" d="M0.00231934 348.081H219.391V517.983H0.00231934V348.081Z" fill="black"/>
<path opacity="0.2" d="M219.389 517.998H136.297L136.297 348.096H219.389V517.998Z" fill="black"/>
<path d="M213.664 506.357C207.5 494.276 201.401 482.155 195.366 469.995L177.349 433.455L159.541 396.751C153.604 384.502 147.762 372.204 142.014 359.855C148.158 371.937 154.252 384.057 160.297 396.218L178.329 432.772L196.137 469.476C202.044 481.675 207.886 493.969 213.664 506.357Z" fill="#303792"/>
<path d="M213.664 359.779C207.876 372.117 202.034 384.416 196.137 396.675L178.329 433.378L160.297 469.918C154.272 482.079 148.178 494.199 142.014 506.281C147.792 493.942 153.634 481.649 159.541 469.399L177.349 432.696L195.366 396.141C201.411 383.981 207.51 371.86 213.664 359.779Z" fill="#303792"/>
<path d="M165.396 348.081H190.625V368.813H165.396V348.081Z" fill="#EBEBEB"/>
<path d="M46.0933 481.771H47.8594V506.684H46.0933V481.771Z" fill="white"/>
<path d="M41.8707 481.771H43.6367V506.684H41.8707V481.771Z" fill="white"/>
<path d="M37.6246 481.771H39.3906V506.684H37.6246V481.771Z" fill="white"/>
<path d="M33.3785 481.771H35.1445V506.684H33.3785V481.771Z" fill="white"/>
<path d="M29.1324 481.771H30.8984V506.684H29.1324V481.771Z" fill="white"/>
<path d="M24.8902 481.771H26.6562V506.684H24.8902V481.771Z" fill="white"/>
<path d="M20.6597 481.771H22.4258V506.684H20.6597V481.771Z" fill="white"/>
<path d="M16.4137 481.771H18.1797V506.684H16.4137V481.771Z" fill="white"/>
<path d="M12.1715 481.771H13.9375V506.684H12.1715V481.771Z" fill="white"/>
<path d="M65.2105 504.786L58.4136 506.669H74.3672L67.5702 504.771V495.606C72.4379 494.969 74.3672 490.179 74.3672 481.785H58.4136C58.4136 490.149 60.3428 494.969 65.2105 495.606V504.786Z" fill="white"/>
<path d="M78.0916 494.479H82.2618V506.669H92.9322V494.479H97.1172L87.5896 481.785L78.0916 494.479Z" fill="white"/>
<path opacity="0.1" d="M0.000976562 517.984V506.061L136.297 483.979V517.984H0.000976562Z" fill="black"/>
<path d="M7.91586 288.17H177.41V348.081H7.91586V288.17Z" fill="#303792"/>
<path opacity="0.2" d="M7.91586 288.17H177.41V348.081H7.91586V288.17Z" fill="black"/>
<path opacity="0.2" d="M177.391 348.081H125.598L125.598 288.17H177.391V348.081Z" fill="black"/>
<path d="M173.828 343.958C169.999 339.687 166.185 335.416 162.431 331.131L151.196 318.244L140.096 305.298C136.415 300.977 132.774 296.642 129.173 292.292C133.012 296.553 136.811 300.829 140.57 305.12L151.82 318.021L162.905 330.968C166.586 335.268 170.227 339.598 173.828 343.958Z" fill="#303792"/>
<path d="M173.828 292.292C170.227 296.632 166.586 300.967 162.905 305.298L151.82 318.244L140.57 331.131C136.811 335.421 133.012 339.697 129.173 343.958C132.784 339.598 136.425 335.263 140.096 330.953L151.196 318.021L162.431 305.134C166.185 300.819 169.999 296.548 173.828 292.292Z" fill="#303792"/>
<path d="M143.749 288.17H159.48V302.199H143.749V288.17Z" fill="#EBEBEB"/>
<path d="M36.644 325.511H37.7422V341.037H36.644V325.511Z" fill="#263238"/>
<path d="M34.0033 325.511H35.1016V341.037H34.0033V325.511Z" fill="#263238"/>
<path d="M31.3588 325.511H32.457V341.037H31.3588V325.511Z" fill="#263238"/>
<path d="M28.7182 325.511H29.8164V341.037H28.7182V325.511Z" fill="#263238"/>
<path d="M26.0775 325.511H27.1758V341.037H26.0775V325.511Z" fill="#263238"/>
<path d="M23.4369 325.511H24.5352V341.037H23.4369V325.511Z" fill="#263238"/>
<path d="M20.7768 325.511H21.875V341.037H20.7768V325.511Z" fill="#263238"/>
<path d="M18.14 325.511H19.2383V341.037H18.14V325.511Z" fill="#263238"/>
<path d="M15.4955 325.511H16.5938V341.037H15.4955V325.511Z" fill="#263238"/>
<path d="M48.5598 339.851L44.3154 341.037H54.2734L50.0291 339.836V334.127C52.9972 333.741 54.2734 330.746 54.2734 325.511H44.3154C44.3154 330.731 45.5175 333.741 48.5598 334.127V339.851Z" fill="#263238"/>
<path d="M56.5877 333.43H59.1848V341.037H65.8334V333.43H68.4453L62.5091 325.511L56.5877 333.43Z" fill="#263238"/>
<path opacity="0.1" d="M7.91262 348.081V340.651L125.613 326.89V348.081H7.91262Z" fill="black"/>
<path d="M208.598 90.5537C207.991 96.3706 205.779 101.905 202.207 106.538C198.636 111.171 193.846 114.722 188.373 116.793C182.9 118.865 176.958 119.375 171.211 118.268C165.464 117.161 160.138 114.48 155.828 110.524L140.02 112.841L147.924 99.1874C146.113 94.7441 145.339 89.9468 145.662 85.16C145.985 80.3733 147.396 75.7231 149.787 71.5627C152.178 67.4024 155.487 63.8415 159.461 61.1505C163.436 58.4596 167.973 56.7094 172.726 56.033C177.479 55.3567 182.324 55.7719 186.893 57.2472C191.461 58.7224 195.633 61.2189 199.091 64.5469C202.55 67.8749 205.203 71.9468 206.85 76.4532C208.498 80.9596 209.095 85.7819 208.598 90.5537Z" fill="white"/>
<path d="M208.596 90.5543C207.988 96.3757 205.781 101.916 202.219 106.562C201.333 107.716 200.377 108.815 199.358 109.854C198.308 110.863 197.195 111.806 196.027 112.676C193.698 114.439 191.134 115.865 188.408 116.915C185.681 117.977 182.82 118.657 179.906 118.938C178.447 119.071 176.98 119.099 175.517 119.021C174.05 118.991 172.588 118.84 171.146 118.57C165.315 117.503 159.898 114.832 155.504 110.856L155.881 110.975L140.092 113.394L138.941 113.568L139.521 112.557L147.388 98.8846V99.4179C145.534 94.8943 144.745 90.0056 145.081 85.1289C145.418 80.2522 146.872 75.518 149.33 71.2917C151.79 67.0817 155.172 63.4825 159.221 60.7639C163.267 58.0847 167.867 56.3568 172.677 55.7102C177.487 55.0637 182.381 55.5152 186.991 57.0309C191.557 58.5783 195.72 61.126 199.174 64.4877C202.615 67.8377 205.251 71.924 206.883 76.4391C208.515 80.9541 209.1 85.7803 208.596 90.5543ZM208.596 90.5543C209.093 85.8025 208.494 81 206.844 76.5156C205.195 72.0313 202.538 67.9845 199.079 64.6861C195.62 61.3876 191.451 58.9253 186.891 57.4883C182.331 56.0513 177.502 55.6778 172.775 56.3965C168.1 57.1028 163.647 58.8636 159.755 61.5454C155.885 64.2539 152.651 67.7709 150.278 71.8526C147.948 75.9428 146.577 80.5072 146.266 85.2031C145.967 89.9089 146.727 94.6219 148.492 98.9949L148.612 99.2708L148.456 99.5374L140.506 113.155L139.935 112.327L155.752 110.111H155.973L156.13 110.258C160.35 114.207 165.588 116.901 171.257 118.037C172.67 118.327 174.104 118.502 175.545 118.561C179.878 118.87 184.228 118.243 188.298 116.722C191.026 115.739 193.594 114.357 195.916 112.621C197.087 111.773 198.202 110.852 199.257 109.863C200.279 108.837 201.238 107.75 202.127 106.608C205.731 101.959 207.97 96.4011 208.596 90.5543Z" fill="#263238"/>
<path d="M173.485 105.274L159.996 91.6296L164.523 87.1519L172.409 95.1235L188.778 69.4707L194.152 72.9003L173.485 105.274Z" fill="#303792"/>
</svg>
