<svg width="34" height="19" viewBox="0 0 34 19" fill="none" xmlns="http://www.w3.org/2000/svg">
<path fill-rule="evenodd" clip-rule="evenodd" d="M1.59947 5.40978L2.2128 13.0018C2.29547 13.7858 2.47947 14.2898 2.70347 14.5671C2.79645 14.672 2.91687 14.7487 3.05116 14.7888C3.18544 14.8288 3.32825 14.8306 3.46347 14.7938H3.53547H6.54347C6.70809 14.8108 6.87438 14.7877 7.0281 14.7264C7.18183 14.6651 7.3184 14.5674 7.42613 14.4418L7.43947 14.4258C7.66094 14.057 7.77028 13.6317 7.75413 13.2018V4.82045C7.74103 4.78367 7.7347 4.74482 7.73547 4.70578C7.73416 4.69515 7.73416 4.68441 7.73547 4.67378C7.72349 4.56195 7.6875 4.45402 7.62997 4.35737C7.57244 4.26072 7.49473 4.17763 7.40213 4.11378C7.08364 3.94861 6.72505 3.87653 6.36747 3.90578H2.60213C2.44658 3.89727 2.29093 3.92055 2.14468 3.97419C1.99842 4.02784 1.86463 4.11072 1.75147 4.21778C1.5728 4.43111 1.5088 4.79911 1.5968 5.37245V5.40978H1.59947ZM25.5621 5.08711C25.5617 4.95961 25.5697 4.83222 25.5861 4.70578L24.2021 3.77511C24.0021 3.64178 23.7835 3.48711 23.5621 3.33245C22.7621 2.77778 21.9621 2.20711 21.0741 1.97511C20.5563 1.84166 20.0248 1.76829 19.4901 1.75645C18.9998 1.74383 18.51 1.79765 18.0341 1.91645C17.7567 1.98678 17.4883 2.08878 17.2341 2.22045C17.0104 2.33841 16.8033 2.48547 16.6181 2.65778L15.6688 3.76978C15.6402 3.82394 15.6001 3.87124 15.5515 3.90845L12.9728 6.97778C13.0061 7.15805 13.083 7.32742 13.1968 7.47111C13.3217 7.62401 13.4858 7.74014 13.6715 7.80711C13.8866 7.88422 14.1161 7.91246 14.3435 7.88978C14.7761 7.84772 15.1864 7.67784 15.5221 7.40178L16.2395 6.80178C16.4208 6.65245 16.5728 6.51378 16.7221 6.37778C17.0305 6.07807 17.3682 5.81006 17.7301 5.57778C18.5301 5.09778 19.3301 5.08178 20.1301 6.40978L24.1835 13.7351H25.5621V5.08711ZM25.8901 3.91645C25.9525 3.8291 26.024 3.74865 26.1035 3.67645C26.5309 3.33566 27.07 3.16642 27.6155 3.20178H31.1355C31.8741 3.20178 32.4688 3.33245 32.8901 3.65245C33.3515 4.00978 33.5701 4.55111 33.4768 5.32978L32.6981 13.3858C32.6853 13.9913 32.4798 14.577 32.1115 15.0578C31.9228 15.2693 31.6867 15.4333 31.4225 15.5361C31.1583 15.639 30.8736 15.678 30.5915 15.6498H27.4261C27.0168 15.6819 26.6107 15.557 26.2901 15.3004C26.0455 15.0966 25.8496 14.8406 25.7168 14.5511H24.6208C24.7592 14.9398 24.7667 15.3631 24.6421 15.7564C24.519 16.1255 24.2899 16.4501 23.9835 16.6898C23.6836 16.9266 23.3285 17.0835 22.9515 17.1458C22.5766 17.2089 22.1916 17.1664 21.8395 17.0231C21.4874 17.4156 21.0346 17.7043 20.5301 17.8578C20.07 17.9832 19.5822 17.9608 19.1355 17.7938C18.753 18.2524 18.2332 18.5759 17.6528 18.7164C17.0511 18.8283 16.4293 18.7344 15.8875 18.4498C15.7013 18.5971 15.4958 18.7182 15.2768 18.8098C14.977 18.9338 14.6544 18.9929 14.3301 18.9831C13.6889 18.9955 13.066 18.7683 12.5835 18.3458C12.1841 17.9503 11.8525 17.4917 11.6021 16.9884L9.8528 13.9484H8.49813C8.43689 14.2968 8.29939 14.6274 8.09547 14.9164L8.0768 14.9431C7.89143 15.1718 7.65271 15.3515 7.38163 15.4664C7.11054 15.5812 6.8154 15.6277 6.52213 15.6018H3.5648C3.2952 15.6614 3.01441 15.646 2.75299 15.5571C2.49157 15.4682 2.25953 15.3094 2.08213 15.0978C1.73547 14.6951 1.49547 14.0311 1.39413 13.0791V13.0444L0.7808 5.48178C0.658134 4.66578 0.7808 4.08711 1.12213 3.69245C1.30596 3.49416 1.52997 3.33736 1.77921 3.23252C2.02844 3.12767 2.29717 3.07719 2.56747 3.08445H6.36213C6.87964 3.0505 7.39582 3.16819 7.84747 3.42311C8.16196 3.62328 8.39242 3.93152 8.49547 4.28978H11.0421C11.6246 3.87234 12.2652 3.54261 12.9435 3.31111C13.6535 3.09774 14.401 3.03954 15.1355 3.14045L16.0075 2.10311L16.0395 2.06845C16.2789 1.84121 16.548 1.64745 16.8395 1.49245C17.1509 1.33234 17.4792 1.20713 17.8181 1.11911C18.3668 0.984723 18.9307 0.922863 19.4955 0.935113C20.094 0.948584 20.6891 1.0309 21.2688 1.18045C22.2848 1.44711 23.1621 2.06311 24.0155 2.66045C24.2208 2.80445 24.4235 2.94578 24.6421 3.09245L25.8821 3.91645H25.8901ZM4.9408 11.2711C5.08132 11.2706 5.21883 11.3118 5.33589 11.3895C5.45294 11.4673 5.54427 11.578 5.59829 11.7078C5.65231 11.8375 5.66658 11.9803 5.6393 12.1182C5.61201 12.256 5.5444 12.3827 5.44504 12.482C5.34567 12.5814 5.21904 12.649 5.08119 12.6763C4.94335 12.7036 4.80051 12.6893 4.67078 12.6353C4.54106 12.5813 4.43031 12.4899 4.35257 12.3729C4.27483 12.2558 4.23361 12.1183 4.23413 11.9778C4.23484 11.7906 4.30951 11.6112 4.44189 11.4789C4.57426 11.3465 4.7536 11.2718 4.9408 11.2711ZM23.7648 14.5138C23.7085 14.4893 23.6583 14.4527 23.6178 14.4066C23.5772 14.3605 23.5473 14.306 23.5301 14.2471L19.4181 6.82578C18.9621 6.06311 18.5515 6.04178 18.1515 6.27911C17.8354 6.48807 17.5399 6.72647 17.2688 6.99111C17.0875 7.15645 16.9061 7.32178 16.7568 7.44445L16.0288 8.04445C15.565 8.42181 15 8.65374 14.4048 8.71111C14.0561 8.74228 13.7047 8.69677 13.3755 8.57778C13.0512 8.45781 12.7649 8.25344 12.5461 7.98578C12.2974 7.67165 12.1495 7.28955 12.1221 6.88978C12.1179 6.83014 12.1264 6.77029 12.1471 6.7142C12.1678 6.6581 12.2002 6.60706 12.2421 6.56445L14.4635 3.92178C14.029 3.91127 13.5958 3.97161 13.1808 4.10045C12.5491 4.32131 11.9534 4.634 11.4128 5.02845C11.3375 5.08904 11.2427 5.1203 11.1461 5.11645H8.57813V13.1164H10.0901C10.1661 13.1163 10.2407 13.1372 10.3056 13.1767C10.3705 13.2162 10.4233 13.2729 10.4581 13.3404L12.3248 16.5804C12.5325 17.0038 12.8021 17.3939 13.1248 17.7378C13.4652 18.026 13.9003 18.178 14.3461 18.1644C14.5562 18.1704 14.7651 18.1323 14.9595 18.0524C15.0841 18.0013 15.2016 17.934 15.3088 17.8524L14.1061 15.6018C14.063 15.5068 14.0576 15.399 14.091 15.3002C14.1245 15.2014 14.1943 15.119 14.2863 15.0698C14.3783 15.0206 14.4855 15.0082 14.5863 15.0352C14.687 15.0622 14.7737 15.1265 14.8288 15.2151L16.1461 17.6764C16.5205 17.9158 16.9708 18.0064 17.4085 17.9304C17.8463 17.8544 18.2397 17.6173 18.5115 17.2658L16.6155 14.2844C16.5561 14.1932 16.5354 14.0821 16.5579 13.9756C16.5804 13.8691 16.6443 13.7759 16.7355 13.7164C16.8277 13.659 16.9389 13.6399 17.045 13.6633C17.1512 13.6868 17.2439 13.7508 17.3035 13.8418L19.3008 16.9804C19.6178 17.1209 19.9727 17.1509 20.3088 17.0658C20.6633 16.954 20.9805 16.7474 21.2261 16.4684L19.4208 13.0604C19.3688 12.9639 19.3573 12.8507 19.3888 12.7457C19.4203 12.6406 19.4923 12.5524 19.5888 12.5004C19.6853 12.4485 19.7986 12.437 19.9036 12.4685C20.0086 12.5 20.0968 12.5719 20.1488 12.6684L22.0155 16.1938C22.2581 16.331 22.5414 16.3782 22.8155 16.3271C23.0544 16.289 23.2794 16.1898 23.4688 16.0391C23.6474 15.9033 23.7819 15.7178 23.8555 15.5058C23.9366 15.2409 23.9147 14.9552 23.7941 14.7058C23.768 14.6463 23.7571 14.5812 23.7621 14.5164L23.7648 14.5138ZM29.1835 11.2711C29.3236 11.2722 29.4604 11.3147 29.5764 11.3934C29.6924 11.4721 29.7824 11.5834 29.8352 11.7133C29.888 11.8432 29.9012 11.9857 29.873 12.1231C29.8448 12.2604 29.7766 12.3863 29.6769 12.4848C29.5772 12.5834 29.4506 12.6502 29.3129 12.6768C29.1753 12.7035 29.0329 12.6887 28.9036 12.6345C28.7744 12.5802 28.6641 12.4889 28.5867 12.372C28.5093 12.2551 28.4683 12.118 28.4688 11.9778C28.4695 11.7906 28.5442 11.6112 28.6766 11.4789C28.8089 11.3465 28.9883 11.2718 29.1755 11.2711H29.1835Z" fill="#303792"/>
</svg>
