<svg width="163" height="71" viewBox="0 0 163 71" fill="none" xmlns="http://www.w3.org/2000/svg">
<path d="M25.4736 17.4807L20.7739 15.9761L20.7346 15.9629L16.2668 17.3935L3.45744 21.4948L0 22.603V40.1904L1.1666 41.03L3.45644 42.6755L20.6206 55.0119L20.6247 55.0078L20.7719 54.9024L23.7322 52.7742L40.0041 41.0796L41.1052 40.2888L41.207 40.2158L41.2282 40.2006V22.527L25.4726 17.4807H25.4736ZM20.7739 32.3549V50.6449L5.0203 39.3235L3.45644 38.1991V24.5203L3.47156 24.5264L20.7255 19.0016L20.7739 18.9864V19.0188L37.3825 25.007L20.7739 32.3549Z" fill="white"/>
<path d="M48.4974 27.5471C48.4974 26.0039 49.0328 24.8045 50.1036 23.9477C51.1745 23.092 52.6627 22.6631 54.5684 22.6631C55.5121 22.6631 56.3601 22.7817 57.1103 23.019C57.8605 23.2562 58.5017 23.5959 59.0331 24.0359C59.5645 24.478 59.9779 25.0032 60.2723 25.6136C60.5677 26.224 60.7321 26.9114 60.7654 27.6739H58.3626C58.3455 27.3007 58.2567 26.9357 58.0974 26.5798C57.9371 26.224 57.6961 25.9056 57.3765 25.6258C57.0558 25.3459 56.6505 25.1208 56.1625 24.9515C55.6735 24.7822 55.0917 24.697 54.4171 24.697C53.3201 24.697 52.4399 24.9474 51.7734 25.4473C51.1069 25.9482 50.7742 26.6478 50.7742 27.5461C50.7742 28.0713 50.8921 28.5083 51.1281 28.8561C51.364 29.2039 51.6847 29.4918 52.089 29.721C52.4933 29.9501 52.9622 30.1367 53.4925 30.2806C54.0239 30.4246 54.5764 30.5645 55.1502 30.7004C55.858 30.8535 56.5668 31.0188 57.2746 31.1962C57.9825 31.3736 58.6237 31.6292 59.1975 31.9587C59.7702 32.2892 60.234 32.7262 60.5889 33.2687C60.9428 33.8111 61.1203 34.532 61.1203 35.4313C61.1203 36.9411 60.602 38.1152 59.5645 38.9547C58.528 39.7942 57.0135 40.214 55.0241 40.214C53.9785 40.214 53.0348 40.0954 52.1918 39.8581C51.3479 39.6208 50.628 39.2822 50.029 38.8411C49.4301 38.4001 48.9673 37.8658 48.6376 37.2381C48.3089 36.6115 48.1445 35.9069 48.1445 35.1272H50.5473C50.6995 36.0934 51.1583 36.8437 51.9266 37.3781C52.6929 37.9124 53.7103 38.1791 54.9747 38.1791C56.1716 38.1791 57.1163 37.955 57.808 37.5048C58.4987 37.0556 58.8446 36.4584 58.8446 35.7112C58.8446 35.186 58.7266 34.753 58.4907 34.4134C58.2537 34.0747 57.9341 33.7949 57.5297 33.5738C57.1254 33.3538 56.6566 33.1754 56.1262 33.0395C55.5948 32.9036 55.0423 32.7769 54.4686 32.6573C53.7607 32.5042 53.0529 32.3359 52.3441 32.1483C51.6363 31.9617 50.995 31.69 50.4213 31.3341C49.8475 30.9782 49.3847 30.4986 49.0298 29.8964C48.6759 29.2941 48.4984 28.5103 48.4984 27.5441L48.4974 27.5471Z" fill="white"/>
<path d="M64.9161 22.6631H67.0033V29.2627C67.5245 28.3887 68.2203 27.6982 69.0904 27.1902C69.9596 26.6833 70.9427 26.4298 72.0377 26.4298C72.803 26.4298 73.4765 26.5565 74.0593 26.81C74.6421 27.0635 75.1372 27.4092 75.5465 27.8462C75.9549 28.2832 76.2634 28.8034 76.4732 29.4066C76.6819 30.0099 76.7857 30.6619 76.7857 31.3615V40.215H74.5685V31.7812C74.5685 30.6801 74.2771 29.8447 73.6943 29.2758C73.1115 28.7081 72.325 28.4231 71.3329 28.4231C70.7239 28.4231 70.1632 28.5671 69.65 28.8561C69.1368 29.1451 68.6891 29.5212 68.306 29.9836C67.9228 30.4469 67.6183 30.963 67.3925 31.5318C67.1666 32.0996 67.0355 32.6725 67.0012 33.2494V40.214H64.9141V22.6631H64.9161Z" fill="white"/>
<path d="M82.7854 26.6924H80.6992V40.215H82.7854V26.6924Z" fill="white"/>
<path d="M86.6992 45.6976V26.6796H88.7854V28.8301C89.2724 28.0788 89.9116 27.4887 90.7032 27.0598C91.4947 26.6319 92.4899 26.417 93.6907 26.417C94.6466 26.417 95.5339 26.6005 96.3516 26.9675C97.1694 27.3346 97.8731 27.8334 98.465 28.4631C99.0559 29.0927 99.5207 29.8319 99.8605 30.6795C100.199 31.5281 100.37 32.4417 100.37 33.4211C100.37 34.4006 100.2 35.2573 99.8605 36.0969C99.5217 36.9364 99.0559 37.6705 98.465 38.3001C97.8731 38.9297 97.1694 39.4276 96.3516 39.7956C95.5339 40.1627 94.6476 40.3462 93.6907 40.3462C92.4909 40.3462 91.4947 40.1322 90.7032 39.7034C89.9116 39.2745 89.2724 38.6935 88.7854 37.9594V45.6976H86.6992ZM88.7854 32.5289V34.3387C88.8721 34.8812 89.0415 35.3932 89.2946 35.8738C89.5466 36.3554 89.8723 36.7701 90.2726 37.1199C90.6729 37.4697 91.1377 37.7495 91.6681 37.9594C92.1985 38.1693 92.7853 38.2737 93.4286 38.2737C94.1586 38.2737 94.82 38.1389 95.4119 37.8672C96.0028 37.5964 96.4988 37.2375 96.8981 36.7924C97.2984 36.3463 97.607 35.8302 97.8247 35.2442C98.0425 34.6591 98.1514 34.0508 98.1514 33.4211C98.1514 32.7915 98.0425 32.1537 97.8247 31.5586C97.607 30.9644 97.2984 30.4392 96.8981 29.985C96.4978 29.5307 96.0028 29.1677 95.4119 28.897C94.82 28.6263 94.1596 28.4904 93.4286 28.4904C92.7853 28.4904 92.1934 28.5959 91.655 28.8058C91.1155 29.0157 90.6457 29.3046 90.2464 29.6717C89.8461 30.0387 89.5245 30.4676 89.2815 30.9573C89.0375 31.447 88.8721 31.9712 88.7854 32.5309V32.5289Z" fill="white"/>
<path d="M110.177 22.6396C111.203 22.6396 112.133 22.7836 112.968 23.0726C113.803 23.3616 114.516 23.7681 115.107 24.2923C115.698 24.8165 116.155 25.4512 116.476 26.1944C116.798 26.9376 116.959 27.764 116.959 28.6735C116.959 29.583 116.798 30.4174 116.476 31.1789C116.155 31.9393 115.698 32.5912 115.107 33.1327C114.515 33.6751 113.802 34.0949 112.968 34.392C112.133 34.689 111.203 34.8381 110.177 34.8381H105.952V40.2159H103.734V22.6396H110.177ZM109.942 32.7393C111.368 32.7393 112.504 32.3763 113.346 31.6513C114.189 30.9254 114.612 29.951 114.612 28.7262C114.612 27.5014 114.189 26.5534 113.346 25.8274C112.503 25.1025 111.368 24.7395 109.942 24.7395H105.952V32.7403H109.942V32.7393Z" fill="white"/>
<path d="M132.455 39.9791H130.368V37.8286C129.881 38.5626 129.242 39.1446 128.451 39.5725C127.659 40.0004 126.664 40.2153 125.463 40.2153C124.506 40.2153 123.62 40.0318 122.802 39.6648C121.984 39.2977 121.28 38.7989 120.689 38.1692C120.098 37.5396 119.633 36.8055 119.293 35.966C118.955 35.1265 118.785 34.2352 118.785 33.2903C118.785 32.3453 118.955 31.3973 119.293 30.5486C119.632 29.701 120.098 28.9619 120.689 28.3322C121.28 27.7026 121.984 27.2037 122.802 26.8367C123.62 26.4697 124.506 26.2861 125.463 26.2861C126.663 26.2861 127.658 26.5001 128.451 26.929C129.242 27.3578 129.88 27.9479 130.368 28.6993V26.5487H132.455V39.9791ZM130.368 32.398C130.299 31.8383 130.138 31.3141 129.885 30.8244C129.633 30.3347 129.307 29.9058 128.907 29.5388C128.507 29.1717 128.037 28.8828 127.499 28.6729C126.96 28.463 126.369 28.3576 125.725 28.3576C124.995 28.3576 124.334 28.4934 123.742 28.7641C123.151 29.0349 122.655 29.3978 122.256 29.8521C121.855 30.3073 121.547 30.8315 121.329 31.4257C121.111 32.0208 121.002 32.6414 121.002 33.2882C121.002 33.9351 121.111 34.5252 121.329 35.1113C121.547 35.6973 121.854 36.2134 122.256 36.6595C122.655 37.1046 123.151 37.4636 123.742 37.7343C124.333 38.006 124.994 38.1409 125.725 38.1409C126.369 38.1409 126.955 38.0364 127.486 37.8265C128.016 37.6167 128.481 37.3368 128.881 36.987C129.282 36.6372 129.611 36.2225 129.872 35.7409C130.134 35.2603 130.299 34.7483 130.368 34.2058V32.396V32.398Z" fill="white"/>
<path d="M135.32 33.2639C135.32 32.2844 135.503 31.3709 135.868 30.5233C136.233 29.6746 136.729 28.9365 137.355 28.3068C137.981 27.6772 138.715 27.1834 139.559 26.8245C140.402 26.4666 141.303 26.2871 142.259 26.2871C143.042 26.2871 143.789 26.4047 144.503 26.641C145.216 26.8772 145.859 27.2098 146.433 27.6376C147.006 28.0665 147.493 28.5735 147.894 29.1595C148.294 29.7456 148.58 30.3884 148.755 31.088H146.355C146.06 30.3012 145.556 29.6493 144.842 29.1332C144.129 28.6181 143.268 28.3596 142.259 28.3596C141.547 28.3596 140.898 28.4954 140.316 28.7661C139.734 29.0368 139.238 29.3998 138.829 29.8541C138.42 30.3093 138.107 30.8335 137.889 31.4277C137.672 32.0228 137.564 32.6342 137.564 33.2639C137.564 33.8935 137.673 34.5008 137.889 35.0869C138.107 35.6729 138.42 36.1931 138.829 36.6483C139.238 37.1036 139.733 37.4655 140.316 37.7363C140.898 38.008 141.547 38.1428 142.259 38.1428C143.268 38.1428 144.129 37.8894 144.842 37.3824C145.555 36.8754 146.059 36.2275 146.355 35.4407H148.755C148.581 36.1404 148.294 36.7832 147.894 37.3692C147.493 37.9553 147.006 38.4571 146.433 38.8769C145.859 39.2967 145.216 39.6242 144.503 39.8614C143.789 40.0977 143.042 40.2153 142.259 40.2153C141.303 40.2153 140.403 40.0318 139.559 39.6647C138.715 39.2977 137.981 38.7988 137.355 38.1692C136.729 37.5396 136.234 36.8055 135.868 35.966C135.503 35.1264 135.32 34.2261 135.32 33.2639Z" fill="white"/>
<path d="M151.625 22.6631H153.711V32.2659H155.616L159.633 26.7836H162.398L157.624 33.2109L162.999 40.215H160.129L155.694 34.2339H153.711V40.215H151.625V22.6631Z" fill="white"/>
<path d="M82.7854 22.6133H80.6992V24.5012H82.7854V22.6133Z" fill="white"/>
</svg>
