<svg width="24" height="25" viewBox="0 0 24 25" fill="none" xmlns="http://www.w3.org/2000/svg">
<path d="M17.5172 12.9822C17.5078 11.3838 18.232 10.1791 19.6945 9.29082C18.8766 8.11895 17.6391 7.47441 16.0078 7.3502C14.4633 7.22832 12.7734 8.2502 12.1547 8.2502C11.5008 8.2502 10.0055 7.39238 8.82891 7.39238C6.40078 7.42988 3.82031 9.32832 3.82031 13.1908C3.82031 14.3322 4.02891 15.5111 4.44609 16.7252C5.00391 18.3236 7.01484 22.24 9.1125 22.1768C10.2094 22.151 10.9852 21.3986 12.4125 21.3986C13.7977 21.3986 14.5148 22.1768 15.7383 22.1768C17.8547 22.1463 19.6734 18.5861 20.2031 16.983C17.3648 15.6447 17.5172 13.0643 17.5172 12.9822ZM15.0539 5.83379C16.2422 4.42285 16.1344 3.13848 16.0992 2.67676C15.0492 2.7377 13.8352 3.3916 13.1437 4.19551C12.382 5.05801 11.9344 6.12441 12.0305 7.32676C13.1648 7.41348 14.2008 6.82988 15.0539 5.83379Z" fill="#303792"/>
</svg>
