<svg width="24" height="24" viewBox="0 0 24 24" fill="none" xmlns="http://www.w3.org/2000/svg">
<g clip-path="url(#clip0_3344_46356)">
<path d="M12.5005 11.9106L2.74707 22.0162L2.74851 22.022C2.90578 22.5741 3.23983 23.0595 3.69943 23.4035C4.15903 23.7476 4.71879 23.9313 5.29288 23.9267C5.7802 23.9267 6.23732 23.7973 6.62976 23.5731L6.66138 23.5544L17.6396 17.3717L12.5005 11.9106Z" fill="#EA4335"/>
<path d="M22.3691 10.1901L22.359 10.1843L17.6196 7.50195L12.2793 12.1393L17.6383 17.369L22.3533 14.7139C23.1799 14.2783 23.7405 13.4288 23.7405 12.447C23.7405 11.4738 23.187 10.6271 22.3691 10.1901Z" fill="#FBBC04"/>
<path d="M2.74537 2.83887C2.68787 3.04874 2.65625 3.27012 2.65625 3.50012V21.3539C2.65625 21.5839 2.68644 21.8067 2.74537 22.0151L12.8366 12.1697L2.74537 2.83887Z" fill="#4285F4"/>
<path d="M12.5724 12.4268L17.6209 7.50045L6.65276 1.29476C6.24021 1.05345 5.77082 0.926421 5.29288 0.926758C4.07388 0.926758 3.04463 1.73607 2.74707 2.83432V2.8372L12.5724 12.4268Z" fill="#34A853"/>
</g>
<defs>
<clipPath id="clip0_3344_46356">
<rect width="24" height="23" fill="white" transform="translate(0 0.926758)"/>
</clipPath>
</defs>
</svg>
